<svg width="38" height="65" xmlns:xlink="http://www.w3.org/1999/xlink"><defs><path id="path-1" d="M0 64.46h37.516V0H0z"/></defs><g id="THIS-ONE" stroke="none" stroke-width="1" fill="none" fill-rule="evenodd"><g id="Oat-Canada---V1-2b-Copy" transform="translate(-1891 -2832)"><g id="Group-7" transform="translate(1891 2832)"><path d="M33.191 21.645h-1.01a10.592 10.592 0 00-9.574-9.573V4.324a.961.961 0 00-.961-.962H15.87a.96.96 0 00-.96.962v7.748a10.595 10.595 0 00-9.575 9.573h-1.01a.963.963 0 00-.965.962v3.85c0 .531.433.962.964.962h.962V44.74c0 3.976.65 7.928 1.925 11.693v3.703c0 .531.433.962.962.962h21.17c.533 0 .963-.43.963-.962v-3.703a36.37 36.37 0 001.921-11.489v-.119l.002-.085v-.964l-.002-.015v-3.815l.002-.018-.002-.016v-3.817l.002-.016v-8.66h.962c.531 0 .964-.43.964-.962v-3.85a.963.963 0 00-.964-.962" id="Fill-1" fill="#FEFEFE"/><path d="M33.191 21.645h-1.01a10.592 10.592 0 00-9.574-9.573V4.324a.961.961 0 00-.961-.962H15.87a.96.96 0 00-.96.962v7.748a10.595 10.595 0 00-9.575 9.573h-1.01a.963.963 0 00-.965.962v3.85c0 .531.433.962.964.962h.962V44.74c0 3.976.65 7.928 1.925 11.693v3.703c0 .531.433.962.962.962h21.17c.533 0 .963-.43.963-.962v-3.703a36.37 36.37 0 001.921-11.489v-.119l.002-.085v-.964l-.002-.015v-3.815l.002-.018-.002-.016v-3.817l.002-.016v-8.66h.962c.531 0 .964-.43.964-.962v-3.85a.963.963 0 00-.964-.962z" id="Stroke-3" stroke="#FEFEFE" stroke-width="3"/><mask id="mask-2" fill="#fff"><use xlink:href="#path-1"/></mask><path d="M5.287 25.493h26.944v-1.925H5.287v1.925zm24.676 24.08a3.838 3.838 0 00-1.798-.91c.14-.39.21-.803.215-1.218a3.833 3.833 0 00-6.735-2.515 3.798 3.798 0 00-5.774 0 3.821 3.821 0 00-6.518 3.737c-.67.137-1.293.45-1.8.91a33.918 33.918 0 01-.34-4.837V27.419h23.093V44.74c0 1.616-.115 3.232-.343 4.832zm-2.544 4.79a1.927 1.927 0 010-3.852 1.927 1.927 0 010 3.851zm-18.283 4.81H28.38v-1.926H9.136v1.925zm4.216-3.85h-.735c.13-.114.253-.237.367-.367.115.13.238.253.368.368zm-.368-5.955a1.925 1.925 0 11-.001-3.849 1.925 1.925 0 01.001 3.85zm4.813 3.069a1.927 1.927 0 01-3.851 0 1.927 1.927 0 013.85 0zm1.329 2.887h-.735c.13-.115.253-.238.367-.368.114.13.235.253.368.368zm-.368-5.956a1.925 1.925 0 11-.001-3.849 1.925 1.925 0 01.001 3.85zm4.81 3.069a1.923 1.923 0 11-3.846 0 1.923 1.923 0 113.846 0zm1.331 2.887h-.735c.133-.115.254-.238.368-.368.114.13.237.253.367.368zm-.367-5.956a1.921 1.921 0 01-1.923-1.923 1.923 1.923 0 111.923 1.923zm-16.36 3.069a1.926 1.926 0 113.85.001 1.926 1.926 0 01-3.85-.001zm6.738-38.43v7.638H7.264a8.672 8.672 0 017.646-7.639zm1.923 7.638h3.848v-7.7h-3.848v7.7zm0-9.622h3.848V5.287h-3.848v6.736zm5.776 1.983a8.67 8.67 0 017.643 7.639h-7.643v-7.639zm10.581 7.639h-1.01a10.594 10.594 0 00-9.571-9.573V4.326a.964.964 0 00-.964-.964h-5.774a.962.962 0 00-.961.964v7.746a10.594 10.594 0 00-9.573 9.573H4.324a.961.961 0 00-.962.961v3.851c0 .531.43.962.962.962h.961v17.32c0 3.977.65 7.929 1.928 11.694v3.703c0 .531.43.962.96.962h21.171c.531 0 .962-.43.962-.962v-3.703a36.372 36.372 0 001.923-11.49v-.118l.002-.085v-.964l-.002-.016v-3.814l.002-.018-.002-.016v-3.817l.002-.016v-8.66h.96c.533 0 .963-.43.963-.962v-3.85a.962.962 0 00-.964-.962z" id="Fill-5" fill="#151413" mask="url(#mask-2)"/></g></g></g></svg>