<svg width="62" height="62"><g id="THIS-ONE" stroke="none" stroke-width="1" fill="none" fillRule="evenodd"><g id="Oat-Canada---V1-2b-Copy" transform="translate(-1683 -2740)"><g id="Group-7" transform="translate(1684 2741)"><path d="M58.54 25.79h-4.634a4.86 4.86 0 00-4.773-3.982 4.828 4.828 0 00-3.025 1.063 4.91 4.91 0 00-.342-.806L52.288 4.71a3.227 3.227 0 00-3.023-4.36 3.24 3.24 0 00-3.02 2.096L40.47 17.813a4.853 4.853 0 00-5.74-1.904 4.857 4.857 0 00-4.85-4.788 4.858 4.858 0 00-4.852 4.788 4.837 4.837 0 00-1.677-.3l-.01.001c-2.55-.063-3.886 1.946-3.946 2.041h.002a4.788 4.788 0 00-.805 1.86 4.86 4.86 0 00-4.96 3.346 4.827 4.827 0 00-3.008-1.049 4.859 4.859 0 00-4.772 3.983H1.22a.87.87 0 00-.87.87c0 .208.003.415.006.623l.005.19c.004.147.008.293.014.439.002.073.006.145.009.218l.022.427.013.207c.012.196.026.391.042.586.007.09.016.179.024.268l.03.323.04.361.023.206A40.739 40.739 0 00.64 31c.048.364.102.727.163 1.087a.893.893 0 00.013.062 31.693 31.693 0 003.945 10.785c2.718 4.596 6.536 8.369 11.063 10.94v4.957c0 .481.39.87.87.87h26.38c.48 0 .87-.389.87-.87V53.87c4.523-2.571 8.338-6.342 11.054-10.935a31.676 31.676 0 003.945-10.785l.014-.062c.06-.359.113-.72.161-1.083l.011-.076c.018-.139.036-.278.052-.417l.024-.21.039-.357.03-.332a40.94 40.94 0 00.078-1.05c.01-.145.017-.289.023-.433l.01-.215.014-.44a30.81 30.81 0 00.01-.814c0-.48-.389-.87-.87-.87" id="Fill-1" fill="#FEFEFE"/><path d="M58.54 25.79h-4.634a4.86 4.86 0 00-4.773-3.982 4.828 4.828 0 00-3.025 1.063 4.91 4.91 0 00-.342-.806L52.288 4.71a3.227 3.227 0 00-3.023-4.36 3.24 3.24 0 00-3.02 2.096L40.47 17.813a4.853 4.853 0 00-5.74-1.904 4.857 4.857 0 00-4.85-4.788 4.858 4.858 0 00-4.852 4.788 4.837 4.837 0 00-1.677-.3l-.01.001c-2.55-.063-3.886 1.946-3.946 2.041h.002a4.788 4.788 0 00-.805 1.86 4.86 4.86 0 00-4.96 3.346 4.827 4.827 0 00-3.008-1.049 4.859 4.859 0 00-4.772 3.983H1.22a.87.87 0 00-.87.87c0 .208.003.415.006.623l.005.19c.004.147.008.293.014.439.002.073.006.145.009.218l.022.427.013.207c.012.196.026.391.042.586.007.09.016.179.024.268l.03.323.04.361.023.206A40.739 40.739 0 00.64 31c.048.364.102.727.163 1.087a.893.893 0 00.013.062 31.693 31.693 0 003.945 10.785c2.718 4.596 6.536 8.369 11.063 10.94v4.957c0 .481.39.87.87.87h26.38c.48 0 .87-.389.87-.87V53.87c4.523-2.571 8.338-6.342 11.054-10.935a31.676 31.676 0 003.945-10.785l.014-.062c.06-.359.113-.72.161-1.083l.011-.076c.018-.139.036-.278.052-.417l.024-.21.039-.357.03-.332a40.94 40.94 0 00.078-1.05c.01-.145.017-.289.023-.433l.01-.215.014-.44a30.81 30.81 0 00.01-.814c0-.48-.389-.87-.87-.87z" id="Stroke-3" stroke="#FEFEFE" stroke-width="2.1"/><path d="M57.622 28.358l-.005.092c-.014.253-.033.506-.054.758l-.014.17c-.02.23-.043.459-.068.688l-.029.252c-.024.204-.051.409-.079.612l-.021.142H2.408l-.02-.14a35.794 35.794 0 01-.08-.613l-.03-.254a31.593 31.593 0 01-.068-.686l-.015-.173c-.02-.251-.038-.503-.053-.755l-.005-.095c-.015-.275-.027-.55-.035-.826h55.556c-.009.276-.021.552-.036.828zm-4.121 13.69c-2.61 4.414-6.293 8.021-10.659 10.445H16.918c-4.367-2.424-8.049-6.031-10.66-10.445a29.896 29.896 0 01-3.547-9.235h54.338a29.898 29.898 0 01-3.548 9.235zM42.204 57.962h-24.64v-3.73h24.64v3.73zM10.626 23.548c1.414 0 2.611.948 2.989 2.243H7.637a3.118 3.118 0 012.989-2.243zm7.624-2.31a3.086 3.086 0 011.1.201l.05.02a3.092 3.092 0 01.346.162 3.135 3.135 0 011.5 1.89l.016.053c.018.07.034.144.048.217l.004.026c.028.16.044.324.047.49v.004l.001.049c0 .507-.12.998-.353 1.44H15.49a3.117 3.117 0 012.76-4.553h-.001zm7.417-2.855c.083.145.174.285.272.421a4.824 4.824 0 00-.905 3.082l-.022.005c-.389.07-.76.19-1.11.347l-.021.01c-.086.04-.169.08-.252.124l-.009.005c-.086.046-.17.094-.254.145l-.02.013a5.18 5.18 0 00-.2.132c-.029.019-.056.039-.084.059a5.684 5.684 0 00-.13.096l-.06.046a4.817 4.817 0 00-2.59-2.926c.071-.43.233-.835.477-1.2.199-.272 1.236-1.579 3.001-1.364.741.098 1.415.458 1.907 1.005zm3.219 7.408h-5.978c.117-.402.313-.77.57-1.087l.021-.025a3.63 3.63 0 01.168-.186 2.626 2.626 0 01.165-.16c.056-.048.113-.096.172-.142l.047-.033c.043-.032.086-.062.13-.091l.077-.05.11-.065c.029-.016.057-.033.086-.048a2.89 2.89 0 01.175-.085l.104-.043.098-.038a3.365 3.365 0 01.22-.07l.1-.029c.066-.016.133-.03.2-.042l.084-.012c.05-.009.103-.015.154-.02l.077-.007a3.118 3.118 0 013.22 2.233zm.994-12.93a3.115 3.115 0 012.775 4.525 5.571 5.571 0 00-.137.175 4.82 4.82 0 00-2.638-.78c-.95 0-1.859.273-2.638.78a5.62 5.62 0 00-.137-.175 3.117 3.117 0 012.775-4.525zm3.1 9.029a4.862 4.862 0 00-3.1 2.003 4.858 4.858 0 00-3.101-2.003 3.095 3.095 0 01.855-2.41c.01-.01.016-.02.025-.03l.031-.028a3.094 3.094 0 012.19-.9c.825 0 1.602.32 2.19.9a.6.6 0 00.03.028c.01.01.016.02.025.03a3.096 3.096 0 01.856 2.41zm.882 1.658c.078 0 .155.004.232.01l.075.006c.052.006.105.012.156.02l.082.012c.068.012.135.026.2.043l.101.028a2.157 2.157 0 01.22.07l.098.04a2.864 2.864 0 01.278.127c.03.015.058.032.087.048a2.795 2.795 0 01.315.204l.05.035c.058.045.115.093.17.142l.033.03c.045.042.09.085.133.129l.039.041c.043.046.086.094.126.144l.024.027c.256.317.452.684.57 1.086h-5.979a3.12 3.12 0 012.99-2.242zm.231-5.165a3.108 3.108 0 012.314-1.033 3.117 3.117 0 013.068 2.585l-.016.008c-.071.032-.14.067-.21.103l-.005.003a4.878 4.878 0 00-2.374 2.806c-.016-.013-.034-.024-.051-.038l-.133-.1-.079-.055c-.151-.105-.31-.201-.474-.288l-.019-.01a4.508 4.508 0 00-.24-.118l-.025-.011a4.811 4.811 0 00-1.103-.345c-.006 0-.013-.003-.02-.004a4.824 4.824 0 00-.905-3.081c.098-.137.189-.277.272-.422zm6.287 3.058l.011-.004a3.092 3.092 0 01.652-.167l.023-.003c.059-.009.117-.014.175-.02.016 0 .031-.002.047-.003a3.125 3.125 0 01.378-.001c.018 0 .036.003.054.004a2.61 2.61 0 01.309.039l.055.01a3.309 3.309 0 01.337.085l.06.02c.034.012.067.023.1.036l.078.03.075.032c.03.014.059.026.087.04l.052.025c.12.06.234.126.343.2l.013.008.114.08.01.01c.154.114.296.243.425.384l.02.021a2.705 2.705 0 01.106.126c.434.535.695 1.216.695 1.957 0 .507-.121.998-.353 1.44h-5.519a3.086 3.086 0 01-.354-1.44l.001-.045.001-.002a3.134 3.134 0 012.005-2.862zm7.493-18.385a1.495 1.495 0 011.393-.966c.494 0 .94.233 1.222.64.282.406.344.905.17 1.368l-6.176 16.435a4.83 4.83 0 00-1.997-.931l-.026-.007a7.347 7.347 0 00-.283-.047 3.925 3.925 0 00-.393-.04l-.066-.004-.023-.002 6.179-16.446zm1.26 20.492c1.415 0 2.612.948 2.99 2.243h-5.979a3.118 3.118 0 012.99-2.243zm9.407 2.243h-4.634a4.86 4.86 0 00-4.773-3.983 4.825 4.825 0 00-3.025 1.063c-.09-.28-.205-.55-.342-.805l6.522-17.357A3.23 3.23 0 0049.265.35a3.24 3.24 0 00-3.021 2.095L40.47 17.814a4.853 4.853 0 00-5.74-1.905 4.858 4.858 0 00-4.85-4.788 4.858 4.858 0 00-4.852 4.788 4.83 4.83 0 00-1.676-.3l-.01.001c-2.549-.063-3.886 1.947-3.945 2.041l.001.001a4.785 4.785 0 00-.806 1.86 4.861 4.861 0 00-4.96 3.346 4.826 4.826 0 00-3.007-1.05 4.86 4.86 0 00-4.772 3.983H1.22a.87.87 0 00-.87.87c0 .207.003.415.006.622l.005.192c.004.146.008.292.014.438l.008.217.023.428.012.207c.013.196.027.392.043.587l.024.267.03.324.04.36.023.206.052.42.01.07c.048.365.102.727.162 1.088l.014.063A31.693 31.693 0 004.76 42.933c2.72 4.596 6.537 8.37 11.064 10.941v4.958c0 .48.39.87.87.87h26.38c.48 0 .87-.39.87-.87v-4.963c4.523-2.571 8.338-6.342 11.055-10.936a31.693 31.693 0 003.944-10.784c.005-.02.01-.041.013-.062.06-.36.114-.72.163-1.082l.01-.077.052-.417.024-.21.038-.358c.012-.11.022-.22.031-.33l.025-.26c.016-.196.03-.393.042-.59.005-.067.008-.135.012-.202l.023-.431.009-.216c.005-.146.01-.293.013-.44l.005-.19c.004-.208.006-.415.006-.623.001-.48-.389-.87-.87-.87z" id="Fill-5" fill="#151413"/></g></g></g></svg>