<svg width="57" height="45"><g id="THIS-ONE" stroke="none" stroke-width="1" fill="none" fill-rule="evenodd"><g id="Oat-Canada---V1-2b-Copy" transform="translate(-1881 -2757)"><g id="Group-11" transform="translate(1882 2758)"><path d="M53.712 34.956H36.261c6.12-3.067 10.342-9.385 10.342-16.685V9.356a.837.837 0 00-.836-.837h-2.565c-.411-3.084-3.057-5.473-6.252-5.473a6.29 6.29 0 00-3.303.932A6.296 6.296 0 0027.934.35a6.298 6.298 0 00-5.714 3.628 6.288 6.288 0 00-3.3-.932 6.317 6.317 0 00-6.253 5.473h-2.565a.836.836 0 00-.836.837v2.542a9.671 9.671 0 00-6.06 2.822A9.687 9.687 0 00.35 21.615a9.687 9.687 0 002.856 6.895 9.685 9.685 0 006.896 2.857h4.528a18.64 18.64 0 004.94 3.588H2.844a.716.716 0 00-.715.716 6.681 6.681 0 006.673 6.673h38.952a6.68 6.68 0 006.673-6.673.715.715 0 00-.715-.715" id="Fill-1" fill="#FEFEFE"/><path d="M53.712 34.956H36.261c6.12-3.067 10.342-9.385 10.342-16.685V9.356a.837.837 0 00-.836-.837h-2.565c-.411-3.084-3.057-5.473-6.252-5.473a6.29 6.29 0 00-3.303.932A6.296 6.296 0 0027.934.35a6.298 6.298 0 00-5.714 3.628 6.288 6.288 0 00-3.3-.932 6.317 6.317 0 00-6.253 5.473h-2.565a.836.836 0 00-.836.837v2.542a9.671 9.671 0 00-6.06 2.822A9.687 9.687 0 00.35 21.615a9.687 9.687 0 002.856 6.895 9.685 9.685 0 006.896 2.857h4.528a18.64 18.64 0 004.94 3.588H2.844a.716.716 0 00-.715.716 6.681 6.681 0 006.673 6.673h38.952a6.68 6.68 0 006.673-6.673.715.715 0 00-.715-.715z" id="Stroke-3" stroke="#FEFEFE" stroke-width="2.1"/><path d="M10.102 26.688a4.706 4.706 0 01-3.35-1.388 4.708 4.708 0 01-1.387-3.35c0-1.264.493-2.454 1.388-3.348a4.704 4.704 0 012.513-1.316v1.321c0 2.805.631 5.572 1.836 8.08h-1z" id="Fill-5" fill="#FEFEFE"/><path d="M10.102 26.688a4.704 4.704 0 01-3.35-1.388 4.708 4.708 0 01-1.387-3.35c0-1.264.493-2.454 1.388-3.348a4.704 4.704 0 012.513-1.316v1.321c0 2.805.631 5.572 1.836 8.08h-1zm.835-8.08v-2.23a.836.836 0 00-.835-.836A6.366 6.366 0 005.57 17.42a6.368 6.368 0 00-1.876 4.532c0 1.712.666 3.321 1.876 4.531a6.366 6.366 0 004.532 1.877h2.386a.834.834 0 00.724-1.255 16.978 16.978 0 01-2.275-8.497z" id="Fill-7" fill="#151413"/><path d="M47.754 40.915v-.001H8.802a5.251 5.251 0 01-5.194-4.528h49.34a5.251 5.251 0 01-5.194 4.529zM15.592 30.292a.836.836 0 00-.607-.261h-4.883a8.026 8.026 0 01-5.714-2.367 8.026 8.026 0 01-2.367-5.713 8.03 8.03 0 012.367-5.714 8.028 8.028 0 015.714-2.367.836.836 0 00.836-.836v-2.507h1.672v8.08c0 8.45 6.874 15.324 15.325 15.324 3.487 0 6.774-1.146 9.508-3.315 0 0 1.234-.827 2.5-2.5a15.158 15.158 0 003.316-9.51v-8.08h1.672v8.08c0 7.78-5.26 14.339-12.404 16.35-1.463.412-3 .648-4.592.648-1.591 0-3.138-.233-4.622-.649a16.85 16.85 0 01-7.72-4.663zm25.965-10.814a13.489 13.489 0 01-2.923 7.6s-1.064 1.414-2.143 2.168a.914.914 0 00-.086.06 13.493 13.493 0 01-8.47 2.954c-7.236 0-13.174-5.657-13.626-12.782 1.077.096 1.713.37 2.427.677.923.397 1.97.848 3.954.848 1.983 0 3.03-.45 3.952-.848.887-.382 1.653-.712 3.291-.712 1.64 0 2.405.33 3.292.712.923.397 1.97.848 3.954.848 1.982 0 3.029-.45 3.952-.848.714-.308 1.35-.581 2.426-.677zm-27.275-8.951h27.305V17.8c-1.459.106-2.334.48-3.117.819-.887.382-1.653.711-3.291.711-1.64 0-2.405-.33-3.293-.711-.922-.398-1.969-.849-3.953-.849-1.982 0-3.03.45-3.952.849-.888.382-1.653.711-3.292.711-1.639 0-2.405-.33-3.291-.711-.784-.339-1.657-.713-3.116-.819v-7.274zm4.637-5.473c1.166 0 2.281.434 3.14 1.225a.835.835 0 001.376-.413 4.63 4.63 0 014.5-3.509 4.629 4.629 0 014.497 3.51.836.836 0 001.378.412 4.622 4.622 0 013.139-1.225 4.644 4.644 0 014.561 3.801H14.358a4.642 4.642 0 014.561-3.801zm34.794 29.902H36.26c6.121-3.068 10.342-9.385 10.342-16.684V9.356a.836.836 0 00-.836-.837h-2.564c-.411-3.085-3.057-5.473-6.253-5.473a6.297 6.297 0 00-3.302.932A6.297 6.297 0 0027.935.35a6.3 6.3 0 00-5.715 3.628 6.292 6.292 0 00-3.3-.932c-3.197 0-5.844 2.388-6.254 5.473h-2.564a.836.836 0 00-.836.837v2.541a9.675 9.675 0 00-6.06 2.823A9.686 9.686 0 00.35 21.616a9.69 9.69 0 002.856 6.895 9.688 9.688 0 006.896 2.856h4.528a18.664 18.664 0 004.94 3.588H2.844a.715.715 0 00-.716.716 6.682 6.682 0 006.674 6.674h38.952a6.68 6.68 0 006.673-6.674.714.714 0 00-.714-.715z" id="Fill-9" fill="#151413"/></g></g></g></svg>