<svg width="69" height="44" xmlns:xlink="http://www.w3.org/1999/xlink"><defs><path id="path-1" d="M0 .384h68.747v42.468H0z"/></defs><g id="THIS-ONE" stroke="none" stroke-width="1" fill="none" fillRule="evenodd"><g id="Oat-Canada---V1-2b-Copy" transform="translate(-1875 -2932)"><g id="Group-6" transform="translate(1875 2932)"><g id="Group-3" transform="translate(0 .285)"><mask id="mask-2" fill="#fff"><use xlink:href="#path-1"/></mask><path d="M66.767 31.477h-3.882c.134-.474.203-.967.203-1.468a5.379 5.379 0 00-1.238-3.447 5.377 5.377 0 001.238-3.448 5.379 5.379 0 00-1.238-3.447 5.376 5.376 0 001.238-3.447 5.434 5.434 0 00-5.427-5.428h-1.44a5.98 5.98 0 00-5.629-3.99h-8.947a8.396 8.396 0 001.28-4.437c0-1.092-.89-1.98-1.98-1.98h-2.04a8.41 8.41 0 00-6.417 2.989A8.413 8.413 0 0026.07.384H24.03c-1.092 0-1.98.889-1.98 1.982a8.394 8.394 0 001.28 4.436h-5.177a5.978 5.978 0 00-5.626 3.99h-1.44A5.433 5.433 0 005.66 16.22c0 1.278.44 2.486 1.237 3.447a5.382 5.382 0 00-1.237 3.447 5.38 5.38 0 001.237 3.448 5.382 5.382 0 00-1.237 3.447c0 .501.068.994.202 1.468H1.98c-.41 0-.805.125-1.139.36-.432.304-.72.758-.812 1.278a1.969 1.969 0 00.33 1.48l5.208 7.415c.37.528.977.842 1.62.842H61.56c.644 0 1.25-.314 1.62-.842l5.21-7.416a1.982 1.982 0 00-1.621-3.117" id="Fill-1" fill="#FEFEFE" mask="url(#mask-2)"/></g><path d="M61.086 40.246H7.66l-3.928-5.593h61.282l-3.93 5.593zM8.55 30.294a2.537 2.537 0 012.537-2.537h20.49v.65a2.797 2.797 0 105.594 0v-.65H57.66a2.537 2.537 0 110 5.074H11.087a2.536 2.536 0 01-2.537-2.537zm0-6.895c0-1.4 1.136-2.537 2.537-2.537h11.597c.006.047.02.09.028.135a2.634 2.634 0 00.134.5c.024.066.047.132.075.196.045.097.097.187.152.277.032.055.06.11.096.162.081.117.172.225.27.327.037.04.078.077.118.115.097.09.197.177.306.253.058.04.122.073.185.11.081.049.162.096.25.136.072.033.147.06.223.087a2.779 2.779 0 00.5.13c.038.006.074.018.114.023.048.006.094 0 .142.003.062.004.122.018.185.018.046 0 .088-.011.133-.013.086-.004.17-.014.254-.025.1-.015.2-.031.298-.056.078-.02.153-.045.229-.071a2.77 2.77 0 00.284-.114c.07-.033.136-.07.203-.11a2.81 2.81 0 00.255-.164c.064-.047.123-.099.183-.151.074-.065.145-.13.212-.203.056-.06.107-.125.158-.191.058-.076.114-.152.164-.233.045-.073.084-.148.122-.225.043-.086.083-.172.117-.263.03-.08.055-.165.077-.25.026-.093.049-.188.064-.286.007-.04.02-.077.025-.117h3.337v5.074h-20.49a2.536 2.536 0 01-2.537-2.537zm0-6.895c0-1.4 1.136-2.537 2.537-2.537h10.602c.54 0 .976.437.977.976v4.098h-11.58a2.537 2.537 0 01-2.536-2.537zm23.027 2.537H28.26v-4.098c0-.539.436-.975.975-.976h1.366c.539 0 .975.437.976.976v4.098zm5.594 1.821h4.749v4.098c-.001.18.019.356.052.531.014.065.036.126.052.189.023.086.04.173.071.256h-4.924v-5.074zm4.749-1.82H37.17v-4.099c0-.539.437-.975.976-.976h2.796c.54 0 .976.437.977.976v4.098zM18.155 9.977h32.437c1.35.001 2.54.88 2.942 2.168h-5.045a2.801 2.801 0 00-2.797 2.797V24.96a.976.976 0 01-1.951 0V14.943a2.8 2.8 0 00-2.798-2.797h-2.796a2.801 2.801 0 00-2.798 2.797v13.464a.975.975 0 11-1.951 0V14.944a2.8 2.8 0 00-2.797-2.797h-1.366a2.801 2.801 0 00-2.797 2.797v5.594a.975.975 0 11-1.951 0v-5.594a2.8 2.8 0 00-2.798-2.797h-6.475a3.084 3.084 0 012.941-2.168zm6.863-6.418h1.052A5.515 5.515 0 0131.5 8.157H30.45a5.517 5.517 0 01-5.431-4.597zm13.887 0h1.052a5.516 5.516 0 01-5.431 4.597h-1.052a5.516 5.516 0 015.431-4.597zm21.292 12.944a2.537 2.537 0 01-2.537 2.537H47.513v-4.098c0-.539.437-.975.976-.976h9.171a2.537 2.537 0 012.537 2.537zm0 6.895c0 1.401-1.135 2.537-2.537 2.537H47.338c.031-.083.047-.17.07-.256.017-.063.04-.124.052-.189.033-.175.053-.352.053-.53v-4.099H57.66a2.537 2.537 0 012.537 2.537zm6.57 9.432H61.2c.513-.715.82-1.59.82-2.537 0-1.404-.669-2.65-1.7-3.447a4.348 4.348 0 000-6.895 4.347 4.347 0 001.7-3.448 4.359 4.359 0 00-4.36-4.358h-2.257a4.905 4.905 0 00-4.81-3.99H39.343a7.314 7.314 0 002.51-5.507.91.91 0 00-.91-.91h-2.039a7.333 7.333 0 00-6.418 3.798A7.333 7.333 0 0026.07 1.74H24.03a.91.91 0 00-.91.91 7.314 7.314 0 002.51 5.508h-7.476a4.906 4.906 0 00-4.811 3.989h-2.257a4.358 4.358 0 00-4.358 4.358c0 1.405.667 2.65 1.699 3.448a4.346 4.346 0 000 6.895 4.346 4.346 0 00-.88 5.984H1.981a.911.911 0 00-.745 1.434l5.207 7.415c.171.243.449.387.746.387h54.37a.91.91 0 00.745-.387l5.208-7.415a.91.91 0 00-.745-1.434z" id="Fill-4" fill="#020303"/></g></g></g></svg>