<svg width="38" height="53" xmlns:xlink="http://www.w3.org/1999/xlink"><defs><path id="path-1" d="M0 .305h37.915V51.1H0z"/></defs><g id="THIS-ONE" stroke="none" stroke-width="1" fill="none" fillRule="evenodd"><g id="Oat-Canada---V1-2b-Copy" transform="translate(-1695 -2927)"><g id="Group-6" transform="translate(1695 2927)"><g id="Group-3" transform="translate(0 .395)"><mask id="mask-2" fill="#fff"><use xlink:href="#path-1"/></mask><path d="M37.914 26.093c-.038-2.29-1.252-4.487-3.614-6.539a6.198 6.198 0 00.022-2.549c-.788-3.9-4.63-5.514-7.878-6.353a5.684 5.684 0 00-2.001-4.815c1.019-1.536 2.105-1.723 2.568-1.723.786 0 1.21.164 1.395.262a1.915 1.915 0 002.05-.163 1.897 1.897 0 00.745-1.667 1.9 1.9 0 00-1.005-1.53c-.887-.472-1.958-.71-3.185-.71-1.836 0-3.54.823-4.926 2.381-.347.39-.82.996-1.278 1.814h-.024a5.685 5.685 0 00-3.918 1.571 1.91 1.91 0 00-1.023-.783 1.921 1.921 0 00-1.51.154C11.777 6.877 9.905 8.8 8.77 11.156a11.686 11.686 0 00-1.135 4.261c-2.133 1.085-3.41 3.03-3.613 5.527a9.369 9.369 0 00.023 1.708c-1.522.771-2.574 2-3.001 3.531a5.682 5.682 0 00-.04 2.875 1.914 1.914 0 00-.956 2.101l3.9 17.153A3.565 3.565 0 007.44 51.1h22.492a3.563 3.563 0 003.493-2.788l3.898-17.153a1.892 1.892 0 00-.327-1.555c.63-1.12.937-2.298.918-3.51" id="Fill-1" fill="#FEFEFE" mask="url(#mask-2)"/></g><path d="M33.306 30.345H21.245c1.769-.924 4.059-2.22 6.218-3.733a.788.788 0 00-.904-1.288c-3.746 2.628-8.037 4.635-8.881 5.02H4.446c-.782-.843-1.1-2.008-.811-3.043.327-1.17 1.383-1.99 2.973-2.308a129.218 129.218 0 009.853-2.399.787.787 0 10-.435-1.51 128.124 128.124 0 01-9.229 2.265c-.24-1.295-.399-4.098 2.353-5.277 1.063-.456 3.216-.848 5.495-1.262l.762-.14a.786.786 0 10-.285-1.547l-.759.139c-1.471.267-2.892.526-4.052.81.108-1.833.884-5.07 4.67-7.487.285.424.59.774.834 1.024.17.175.313.311.44.421a4.567 4.567 0 004.528 5.107 4.555 4.555 0 003.629-1.8c1.551.33 2.835.712 3.871 1.157.197.298.17.512.116.683-.196.612-1.414 2.295-8.493 4.697a.787.787 0 00.506 1.49c2.537-.861 4.596-1.72 6.117-2.555 1.926-1.057 3.029-2.088 3.368-3.154.026-.079.045-.157.063-.236.967.703 1.526 1.53 1.725 2.514.29 1.43-.36 3.008-1.931 4.692a.787.787 0 001.15 1.073 11.409 11.409 0 001.443-1.88c1.883 1.582 2.85 3.166 2.876 4.714.028 1.716-1.105 3.067-1.917 3.813zM30.8 48.109a.888.888 0 01-.87.695h-.902c.039-.125.071-.254.094-.388l2.812-16.498H34.482l-3.68 16.191zm-3.68.695h-1.287c.033-.137.057-.28.075-.431l1.87-16.455h2.56l-2.766 16.233c-.073.426-.31.653-.452.653zm-2.954 0h-1.52c.02-.149.035-.307.045-.475l.932-16.41h2.571l-1.85 16.276c-.037.325-.124.52-.178.609zm-3.045-.564c-.015.243-.041.429-.068.564h-1.582V31.918h2.576l-.926 16.322zm-3.223.564h-1.582a4.09 4.09 0 01-.066-.564l-.928-16.322H17.9v16.886zm-4.694 0c-.054-.089-.142-.284-.179-.61l-1.85-16.276h2.572l.932 16.41c.01.17.025.327.044.476h-1.519zm-2.954 0c-.143 0-.38-.227-.451-.653L7.033 31.918h2.56l1.87 16.455c.017.15.042.294.074.43h-1.286zm-2.811 0a.887.887 0 01-.87-.695L2.89 31.92h2.547l2.812 16.497c.022.134.055.263.094.388H7.44zM20.783 7.586a2.993 2.993 0 012.99 2.99 2.992 2.992 0 01-2.99 2.988 2.993 2.993 0 01-2.989-2.989 2.993 2.993 0 012.99-2.99zm14.684 22.759h-.035c.74-.97 1.39-2.273 1.364-3.84-.034-2.116-1.3-4.188-3.762-6.156.308-.925.374-1.836.193-2.728-.716-3.536-4.553-4.949-8.074-5.734a4.567 4.567 0 00-2.187-5.317c1.41-2.863 3.289-3.179 4.045-3.179.964 0 1.569.206 1.919.392a.786.786 0 10.74-1.386c-.564-.3-1.422-.58-2.659-.58-1.508 0-2.923.694-4.09 2.008a9.455 9.455 0 00-1.458 2.239A4.564 4.564 0 0016.8 8.357a5.112 5.112 0 01-.825-1.196.787.787 0 00-1.094-.348c-2.352 1.319-4.07 3.076-5.103 5.223a10.584 10.584 0 00-1.052 4.512 7.978 7.978 0 00-.194.078c-2.037.872-3.21 2.534-3.396 4.804a8.672 8.672 0 00.138 2.303c-1.62.58-2.748 1.69-3.154 3.145-.32 1.148-.154 2.394.413 3.467h-.627a.786.786 0 00-.767.961l3.898 17.152a2.452 2.452 0 002.404 1.919h22.492a2.451 2.451 0 002.403-1.919l3.899-17.152a.789.789 0 00-.767-.961z" id="Fill-4" fill="#020303"/></g></g></g></svg>