<svg width="59" height="61"><g id="THIS-ONE" stroke="none" stroke-width="1" fill="none" fill-rule="evenodd"><g id="Oat-Canada---V1-2b-Copy" transform="translate(-1685 -2834)"><g id="Group-7" transform="translate(1686 2835)"><path d="M44.868 33.254h2.903a2.907 2.907 0 012.903 2.903v5.807a2.906 2.906 0 01-2.903 2.903h-2.903V33.254zm2.903-5.807h-3.317a4.878 4.878 0 00-1.522-1.915v-1.956a.968.968 0 00.968-.968v-3.87a.961.961 0 00-.284-.685 2.904 2.904 0 00-2.62-4.154h-.165a2.903 2.903 0 00-2.738-3.871h-2.42l-2.612-3.484a.968.968 0 00-1.549 0L28.9 10.028h-.658l-1.78-8.9a.967.967 0 00-.948-.778H21.64a.968.968 0 00-.949 1.157l1.706 8.53a2.903 2.903 0 00-2.526 3.862h-.166a2.902 2.902 0 00-2.62 4.154.964.964 0 00-.283.684v3.871c0 .535.433.968.968.968v1.956a4.848 4.848 0 00-1.93 3.662 7.628 7.628 0 00-3.923-1.69c-.234-2.421-1.42-5.863-4.793-5.863a.968.968 0 100 1.935c.423 0 1.707 0 2.457 2.205.185.564.312 1.145.38 1.735a7.746 7.746 0 00-6.58 9.077c.334 1.816-.038 3.59-1.047 4.997a10.65 10.65 0 00-1.92 7.372c.536 4.898 4.477 8.845 9.37 9.386a10.73 10.73 0 004.595-.485 10.595 10.595 0 005.125.41c.382.095.774.143 1.169.143h19.355a4.845 4.845 0 004.839-4.84v-2.903h2.903a8.719 8.719 0 008.71-8.71v-5.806a8.72 8.72 0 00-8.71-8.71z" id="Fill-1" fill="#FEFEFE"/><path d="M44.868 33.254h2.903a2.907 2.907 0 012.903 2.903v5.807a2.906 2.906 0 01-2.903 2.903h-2.903V33.254zm2.903-5.807h-3.317a4.878 4.878 0 00-1.522-1.915v-1.956a.968.968 0 00.968-.968v-3.87a.961.961 0 00-.284-.685 2.904 2.904 0 00-2.62-4.154h-.165a2.903 2.903 0 00-2.738-3.871h-2.42l-2.612-3.484a.968.968 0 00-1.549 0L28.9 10.028h-.658l-1.78-8.9a.967.967 0 00-.948-.778H21.64a.968.968 0 00-.949 1.157l1.706 8.53a2.903 2.903 0 00-2.526 3.862h-.166a2.902 2.902 0 00-2.62 4.154.964.964 0 00-.283.684v3.871c0 .535.433.968.968.968v1.956a4.848 4.848 0 00-1.93 3.662 7.628 7.628 0 00-3.923-1.69c-.234-2.421-1.42-5.863-4.793-5.863a.968.968 0 100 1.935c.423 0 1.707 0 2.457 2.205.185.564.312 1.145.38 1.735a7.746 7.746 0 00-6.58 9.077c.334 1.816-.038 3.59-1.047 4.997a10.65 10.65 0 00-1.92 7.372c.536 4.898 4.477 8.845 9.37 9.386a10.73 10.73 0 004.595-.485 10.595 10.595 0 005.125.41c.382.095.774.143 1.169.143h19.355a4.845 4.845 0 004.839-4.84v-2.903h2.903a8.719 8.719 0 008.71-8.71v-5.806a8.72 8.72 0 00-8.71-8.71z" id="Stroke-3" stroke="#FEFEFE" stroke-width="2.1"/><path d="M54.545 41.964a6.783 6.783 0 01-6.774 6.774h-2.903v-1.935h2.903a4.845 4.845 0 004.839-4.84v-5.806a4.844 4.844 0 00-4.84-4.839h-2.902v-1.935h2.903a6.782 6.782 0 016.774 6.774v5.807zm-9.677-8.71h2.903a2.908 2.908 0 012.903 2.903v5.807a2.906 2.906 0 01-2.903 2.903h-2.903V33.254zm-1.936 20.323a2.907 2.907 0 01-2.903 2.903H23.844c2.196-1.598 3.604-4.04 3.604-6.774a.967.967 0 00-.968-.968h-3.968a4.82 4.82 0 00-.918-1.995l-.004-.037a10.624 10.624 0 00-1.742-4.842c-1.138-1.696-1.585-3.527-1.259-5.154a7.58 7.58 0 00-.818-5.216v-2.111a2.87 2.87 0 011.454-2.498.967.967 0 00.48-.836v-2.473h21.292v2.473c0 .344.183.662.48.836a2.873 2.873 0 011.455 2.498v24.194zM17.771 56.48c-3.894 0-7.126-2.528-7.664-5.807h15.327c-.538 3.279-3.77 5.807-7.663 5.807zm2.736-7.742h-5.473a2.903 2.903 0 015.473 0zM9.998 56.425a8.702 8.702 0 01-6.09-13.707c1.319-1.839 1.807-4.139 1.378-6.475a5.807 5.807 0 015.806-6.86c3.196.1 5.729 2.73 5.71 5.928a5.852 5.852 0 01-.111 1.018c-.428 2.137.122 4.485 1.55 6.613a8.713 8.713 0 011.05 2.17 4.836 4.836 0 00-6.263 3.626H9.06a.967.967 0 00-.967.968c0 2.72 1.393 5.152 3.57 6.75a9.004 9.004 0 01-1.665-.031zm8.74-34.784h23.227v-1.936H18.738v1.936zm.968-5.807H40.997a.968.968 0 010 1.936H19.706a.968.968 0 010-1.936zm2.903-3.87h6.775c.304 0 .59-.144.773-.388l2.13-2.838 2.128 2.838a.97.97 0 00.775.387h2.903a.968.968 0 110 1.936H22.61a.968.968 0 110-1.936zm2.11-9.678l.356 1.779-1.65 1.238-.603-3.017h1.897zm1.55 7.742H24.37l-.524-2.622 1.65-1.237.772 3.859zm21.502 17.42h-3.317a4.884 4.884 0 00-1.522-1.916v-1.956a.968.968 0 00.968-.967v-3.872a.965.965 0 00-.284-.684 2.904 2.904 0 00-2.62-4.154h-.165a2.904 2.904 0 00-2.738-3.871h-2.419l-2.612-3.484a.968.968 0 00-1.55 0L28.9 10.028h-.658l-1.78-8.9a.967.967 0 00-.949-.778h-3.87a.967.967 0 00-.95 1.158l1.706 8.528a2.903 2.903 0 00-2.526 3.863h-.166a2.902 2.902 0 00-2.62 4.154.965.965 0 00-.283.684v3.872c0 .534.433.967.968.967v1.956a4.848 4.848 0 00-1.93 3.662 7.63 7.63 0 00-3.923-1.69c-.234-2.421-1.42-5.863-4.793-5.863a.968.968 0 100 1.935c.422 0 1.708 0 2.457 2.205.185.564.312 1.145.38 1.735a7.747 7.747 0 00-6.58 9.078c.334 1.814-.038 3.588-1.047 4.996a10.647 10.647 0 00-1.92 7.372c.536 4.898 4.477 8.845 9.37 9.386a10.824 10.824 0 004.596-.485 10.592 10.592 0 005.124.41c.382.095.775.143 1.169.143h19.355a4.844 4.844 0 004.839-4.84v-2.903h2.903a8.719 8.719 0 008.71-8.71v-5.806a8.72 8.72 0 00-8.71-8.71z" id="Fill-5" fill="#151413"/></g></g></g></svg>