<svg xmlns:xlink="http://www.w3.org/1999/xlink" viewBox="0 0 111 111"><defs><path id="a" d="M.447.156H19.92v29.228H.447z"/></defs><g fill="none" fill-rule="evenodd"><circle fill="#FFF" cx="55.5" cy="55.5" r="55.5"/><path d="M40.916 79.483L53.481 94.22a2 2 0 003.037.008l12.693-14.737a2 2 0 00-1.515-3.306H42.438a2 2 0 00-1.522 3.298zM16.339 50.51c0-8.399 5.518-15.106 15.275-15.106 3.993 0 8.602 1.688 11.896 5.678l-5.722 4.9c-1.236-1.402-3.457-3.046-6.174-3.046-3.624 0-7.04 2.635-7.04 7.573 0 3.994 2.632 7.45 7.04 7.45 2.428 0 4.608-1.069 6.174-2.96l5.722 4.937c-2.513 3.087-6.71 5.556-11.896 5.556-8.646 0-15.275-5.226-15.275-14.983M61.132 53.803l-2.635-8.44h-.082l-2.635 8.44h5.352zM54.71 35.852h7.492L72.78 65.084h-8.15l-1.48-4.734h-9.387l-1.484 4.734h-8.191L54.71 35.852z" fill="#151413"/><g transform="translate(74.434 35.697)"><mask id="b" fill="#fff"><use xlink:href="#a"/></mask><path fill="#151413" mask="url(#b)" d="M.447.156h8.069v22.273H19.92v6.955H.447z"/></g></g></svg>