<svg xmlns:xlink="http://www.w3.org/1999/xlink" viewBox="0 0 123 111"><defs><path id="a" d="M0 .42h109.8v94.097H0z"/></defs><g fill="none" fill-rule="evenodd"><path d="M55.5 0c27.67 0 50.612 20.25 54.812 46.74h3.846a8.426 8.426 0 010 16.85h-3.743C106.498 90.407 83.404 111 55.5 111 24.848 111 0 86.152 0 55.5S24.848 0 55.5 0z" fill="#FFF"/><path d="M50.42 78.164a72.35 72.35 0 01-18.229-14.788l-4.075-4.583c2.351 13.04 12.779 21.725 26.953 21.725-.344 0-.682-.09-.982-.258l-3.667-2.096zM59.717 78.164L56.05 80.26c-.3.168-.638.258-.98.258 14.172 0 24.6-8.686 26.947-21.729l-4.075 4.58a72.36 72.36 0 01-18.225 14.795M55.07 62.872c9.737-.01 17.63-7.902 17.64-17.64v-.035L56.407 60.386c-.756.7-1.923.7-2.675 0L37.426 45.197v.035c.01 9.738 7.902 17.63 17.643 17.64" fill="#151413"/><path d="M55.07 46.38l9.71-9.71a3.92 3.92 0 000-5.54 4.051 4.051 0 00-5.573.01l-2.744 2.744a1.96 1.96 0 01-2.773 0l-2.762-2.765a3.94 3.94 0 00-5.561 0 3.92 3.92 0 000 5.54l9.702 9.721z" fill="#151413"/><g transform="translate(8 7.565)"><mask id="b" fill="#fff"><use xlink:href="#a"/></mask><path d="M47.07 90.594c-23.82 0-43.128-19.308-43.128-43.127 0-23.818 19.309-43.13 43.127-43.13 23.82 0 43.127 19.312 43.127 43.13-.027 23.808-19.322 43.1-43.127 43.127m58.81-47.048H95.706a1.962 1.962 0 01-1.95-1.728C90.768 17.112 69.056-.992 44.217.506 19.378 2.003 0 22.583 0 47.467c0 24.885 19.378 45.468 44.217 46.965 24.84 1.494 46.55-16.609 49.539-41.316a1.959 1.959 0 011.95-1.727h10.173a3.921 3.921 0 100-7.843" fill="#151413" mask="url(#b)"/></g><path d="M85.17 51.24a1.956 1.956 0 011.263 1.832c0 18.47-12.896 31.366-31.365 31.366-18.47 0-31.366-12.897-31.366-31.366a1.96 1.96 0 013.424-1.303l8 8.997a68.657 68.657 0 0017.24 13.99l2.702 1.543 2.702-1.543a68.612 68.612 0 0017.243-13.99l7.997-8.996a1.96 1.96 0 012.16-.53M33.975 40.698a1.946 1.946 0 011.324-1.47 1.941 1.941 0 011.93.432l17.838 16.613L72.906 39.66a1.95 1.95 0 011.933-.432c.676.213 1.181.773 1.327 1.47.307 1.49.463 3.01.467 4.531 0 11.908-9.654 21.565-21.565 21.565-11.911 0-21.562-9.657-21.562-21.565 0-1.522.157-3.04.47-4.53m8.61-12.34a7.853 7.853 0 0111.092-.014l1.39 1.396 1.372-1.368a7.844 7.844 0 1111.103 11.082L56.447 50.55a1.961 1.961 0 01-2.769 0l-11.1-11.096a7.859 7.859 0 01-2.295-5.552c0-2.079.83-4.075 2.303-5.544m12.482-12.535c-21.653 0-39.206 17.553-39.206 39.21 0 21.651 17.553 39.208 39.206 39.208 21.656 0 39.209-17.557 39.209-39.209-.028-21.645-17.564-39.18-39.21-39.209" fill="#151413"/></g></svg>