<?xml version="1.0" encoding="UTF-8"?>
<svg width="111px" height="111px" viewBox="0 0 111 111" version="1.1" xmlns="http://www.w3.org/2000/svg" xmlns:xlink="http://www.w3.org/1999/xlink">
    <title>Group 22</title>
    <defs>
        <polygon id="pathz-1" points="0.000865714286 0.0287571429 103.6462 0.0287571429 103.6462 97.1142857 0.000865714286 97.1142857"></polygon>
    </defs>
    <g id="THIS-ONE" stroke="none" stroke-width="1" fill="none" fill-rule="evenodd">
        <g id="Oat-Canada---V1-2b-Copy" transform="translate(-1841.000000, -1763.000000)">
            <g id="Group-22" transform="translate(1841.000000, 1763.000000)">
                <circle id="Oval" fill="#FFFFFF" cx="55.5" cy="55.5" r="55.5"></circle>
                <g id="Group-52" transform="translate(3.500000, 6.000000)">
                    <path d="M72.4135371,67.6816314 C67.2077086,73.5598314 59.6644514,76.9996029 51.7518229,76.9996029 C43.8391943,76.9996029 36.2959371,73.5598314 31.0901086,67.6816314 L72.4135371,67.6816314 Z M51.7518229,77.8739743 C60.54748,77.8739743 68.8987371,73.7531743 74.2719371,66.80726 L29.2345943,66.80726 C34.6049086,73.7531743 42.9561657,77.8739743 51.7518229,77.8739743 L51.7518229,77.8739743 Z" id="Fill-1" fill="#231F20"></path>
                    <path d="M24.1805543,49.3218514 C24.2382686,34.1689657 36.5833543,21.8585086 51.7506686,21.8585086 C66.9208686,21.8585086 79.2659543,34.1689657 79.3236686,49.3218514 L24.1805543,49.3218514 Z M51.7506686,20.9841371 C36.0668114,20.9841371 23.3061829,33.7447657 23.3061829,49.4286229 C23.3061829,49.6739086 23.3119543,49.9278514 23.3177257,50.1962229 L80.1864971,50.1962229 C80.1922686,49.9278514 80.19804,49.6739086 80.19804,49.4286229 C80.19804,33.7447657 67.4374114,20.9841371 51.7506686,20.9841371 L51.7506686,20.9841371 Z" id="Fill-3" fill="#231F20"></path>
                    <g id="Group-7" transform="translate(0.000000, 0.858400)">
                        <mask id="mask-2" fill="white">
                            <use xlink:href="#pathz-1"></use>
                        </mask>
                        <g id="Clip-6"></g>
                        <path d="M102.772694,63.9415571 C102.772694,64.6745286 102.368694,65.3526714 101.719409,65.7047286 C101.427951,65.8663286 101.096094,65.9500143 100.764237,65.9500143 L96.1528657,65.9500143 C92.7130943,74.7283571 86.8031514,82.2283286 79.04058,87.6592429 C71.0182943,93.2748429 61.5820086,96.2413571 51.75038,96.2413571 C41.9245229,96.2413571 32.4882371,93.2748429 24.4630657,87.6592429 C16.7004943,82.2283286 10.7905514,74.7283571 7.35366571,65.9500143 L2.88080857,65.9500143 C2.54895143,65.9500143 2.21709429,65.8663286 1.92563714,65.7047286 C1.81309429,65.6441286 1.70632286,65.5691 1.60532286,65.4883 C1.50720857,65.4075 1.41486571,65.3151571 1.33406571,65.2170429 C1.03683714,64.8563286 0.872351429,64.4061571 0.872351429,63.9415571 L0.872351429,51.3454143 C0.872351429,50.8808143 1.03683714,50.4277571 1.33406571,50.0670429 C1.41486571,49.9718143 1.50720857,49.8794714 1.60532286,49.7957857 C1.70632286,49.7149857 1.81309429,49.6428429 1.92563714,49.5793571 C2.21709429,49.4206429 2.54895143,49.3369571 2.88080857,49.3369571 L4.08992286,49.3369571 C4.08415143,49.0830143 4.08126571,48.8261857 4.08126571,48.5693571 C4.08126571,22.2833857 25.4672943,0.900242857 51.75038,0.900242857 C78.0363514,0.900242857 99.42238,22.2833857 99.42238,48.5693571 C99.42238,48.8261857 99.4194943,49.0830143 99.4166086,49.3369571 L100.764237,49.3369571 C101.096094,49.3369571 101.427951,49.4206429 101.719409,49.5793571 C102.368694,49.9343 102.772694,50.6095571 102.772694,51.3454143 L102.772694,63.9415571 Z M102.137837,48.8146429 L102.137837,48.8117571 C101.716523,48.5837857 101.243266,48.4625857 100.764237,48.4625857 L100.296751,48.4625857 C100.236151,21.7466429 78.4836371,0.0287571429 51.75038,0.0287571429 C25.0200086,0.0287571429 3.26749429,21.7466429 3.20978,48.4625857 L2.88080857,48.4625857 C2.40178,48.4625857 1.92852286,48.5837857 1.50720857,48.8146429 C1.34560857,48.9041 1.18978,49.0079857 1.05126571,49.1234143 C0.90698,49.2388429 0.777122857,49.3715857 0.661694286,49.5129857 C0.234608571,50.0266429 0.000865714286,50.6788143 0.000865714286,51.3454143 L0.000865714286,63.9415571 C0.000865714286,64.6081571 0.234608571,65.2603286 0.658808571,65.7711 C0.774237143,65.9153857 0.90698,66.0452429 1.05126571,66.1635571 C1.19266571,66.2818714 1.34849429,66.3857571 1.50720857,66.4723286 C1.92852286,66.7003 2.40178,66.8243857 2.88080857,66.8243857 L6.76209429,66.8243857 C10.2913229,75.5219286 16.2243514,82.9613 23.9609514,88.3749 C32.1332943,94.0915 41.7427229,97.1157286 51.75038,97.1157286 C61.7609229,97.1157286 71.3703514,94.0915 79.5426943,88.3749 C87.28218,82.9613 93.2123229,75.5219286 96.7444371,66.8243857 L100.764237,66.8243857 C101.243266,66.8243857 101.719409,66.7003 102.137837,66.4723286 C103.069923,65.9644429 103.647066,64.9948429 103.647066,63.9415571 L103.647066,51.3454143 C103.647066,50.2921286 103.069923,49.3196429 102.137837,48.8146429 L102.137837,48.8146429 Z" id="Fill-5" fill="#231F20" mask="url(#mask-2)"></path>
                    </g>
                    <path d="M41.6076714,27.7240114 C41.7461857,27.8048114 43.6853857,29.7093829 45.6188143,31.63704 C47.5811,33.59644 49.5462714,35.5904686 49.6213,35.7203257 L49.6328429,35.7405257 L49.6357286,35.7636114 C49.6819,36.0781543 48.0283857,37.6652971 47.3040714,38.3607543 C47.1713286,38.48484 47.0703286,38.5829543 47.0183857,38.6348971 C46.3604429,39.2899543 45.7342429,39.9219257 45.0936143,40.5625543 L44.3548714,41.3012971 C44.2307857,41.4282686 44.0230143,41.6273829 43.7719571,41.8726686 C42.6927,42.9172971 40.7477286,44.7987829 40.4909,45.3701543 C40.2860143,45.8260971 40.2975571,46.2993543 40.4591571,46.7091257 C40.5428429,46.9197829 40.6698143,47.1160114 40.8256429,47.2804971 C40.9843571,47.4449829 41.1719286,47.5806114 41.3797,47.67584 C41.7750429,47.8518686 42.2483,47.8836114 42.7359857,47.6873829 C43.2813857,47.4709543 45.3648714,45.3095543 46.3662143,44.2735829 C46.5537857,44.0773543 46.7038429,43.9215257 46.8019571,43.8262971 L46.8019571,43.8234114 C47.2492429,43.3703543 47.6907571,42.92884 48.1322714,42.4902114 C48.5709,42.0486971 49.0124143,41.6100686 49.4683571,41.1570114 C49.5780143,41.05024 49.7482714,40.8742114 49.9531571,40.6606686 C50.6947857,39.8959543 51.8865857,38.66664 52.2559571,38.4790686 L52.3079,38.4530971 L52.3627286,38.4761829 C52.6166714,38.5800686 56.6364714,42.6373829 58.4140714,44.4351829 C58.7892143,44.8103257 59.0633571,45.0873543 59.1816714,45.2056686 C59.5914429,45.61544 59.7039857,46.03964 59.6231857,46.3599543 C59.5914429,46.4926971 59.5221857,46.6081257 59.4327286,46.7004686 C59.3403857,46.7899257 59.2220714,46.8562971 59.0864429,46.88804 C58.7603571,46.9630686 58.3246143,46.8418686 57.9004143,46.4118971 C57.7388143,46.2445257 57.5829857,46.0858114 57.4242714,45.9270971 C57.2684429,45.7712686 57.1155,45.61544 56.9423571,45.4451829 C56.6422429,45.1479543 56.3536714,44.8564971 56.0679857,44.5679257 C55.7217,44.2245257 55.3783,43.8811257 55.0147,43.5204114 C54.6857286,43.19144 54.3683,42.8768971 54.0508714,42.5594686 C53.7363286,42.24204 53.4189,41.9246114 53.0899286,41.59564 C53.0466429,41.5523543 53.0004714,41.4975257 52.9485286,41.4398114 C52.7205571,41.1858686 52.3800429,40.8049543 52.0510714,40.8626686 C51.9616143,40.8799829 51.8750429,40.9232686 51.8086714,40.98964 C51.7682714,41.03004 51.7365286,41.0790971 51.7163286,41.1368114 C51.6990143,41.1945257 51.6932429,41.2637829 51.7076714,41.3388114 C51.7336429,41.4859829 51.8288714,41.65624 52.0222143,41.8495829 C52.1838143,42.0082971 52.5531857,42.38344 53.0322143,42.8711257 C54.6193571,44.4784686 57.4185,47.3208971 57.8196143,47.5632971 C58.2207286,47.8056971 58.6247286,47.8864971 58.9941,47.8432114 C59.3432714,47.8028114 59.6664714,47.6527543 59.9261857,47.4305543 C60.1859,47.2054686 60.3850143,46.9111257 60.4889,46.5792686 C60.6043286,46.2185543 60.6043286,45.8145543 60.4513857,45.4163257 C60.2609286,44.9199829 58.9681286,43.6820114 58.1803286,42.92884 C57.9725571,42.7326114 57.7994143,42.5681257 57.7013,42.4671257 C56.5066143,41.2666686 55.3494429,40.1123829 54.1605286,38.9234686 L53.8142429,38.5771829 C53.7565286,38.5194686 53.6872714,38.44444 53.6151286,38.3694114 C53.1245571,37.8470971 52.4983571,37.1804971 51.5085571,37.8268971 C51.3642714,37.9221257 50.1522714,39.11104 48.6690143,40.58564 C46.4210429,42.8191829 43.5555286,45.7077829 42.8023571,46.4869257 C42.6955857,46.5965829 42.5657286,46.7033543 42.4243286,46.7812686 C42.2829286,46.8534114 42.1328714,46.9024686 41.9828143,46.9024686 C41.8241,46.8995829 41.6682714,46.8447543 41.5326429,46.7120114 C41.4662714,46.6485257 41.4056714,46.5677257 41.3537286,46.4696114 C41.0161,45.8491829 41.7433,45.1739257 42.4329857,44.5361829 C42.5715,44.4063257 42.7129,44.2764686 42.8369857,44.1523829 C42.9783857,44.0138686 43.2294429,43.7685829 43.5439857,43.4569257 C45.5351286,41.5032971 50.2503857,36.8746114 50.4466143,36.3580686 C50.7986714,35.4519543 50.2561571,34.9440686 49.6617,34.3900114 C49.5289571,34.2659257 49.3962143,34.14184 49.2692429,34.0119829 L41.5528429,26.3157829 C41.2007857,26.5322114 40.8602714,26.9246686 40.6236429,27.4036971 C40.3927857,27.8654114 40.2571571,28.40504 40.3004429,28.9446686 C40.3927857,30.0960686 41.1286429,30.8174971 41.6971286,31.37444 C41.7490714,31.4234971 41.7981286,31.47544 41.8414143,31.51584 C42.1646143,31.83904 42.4907,32.16224 42.8139,32.4825543 C43.8989286,33.5618114 44.9753,34.6324114 46.0632143,35.73764 C46.0920714,35.7693829 46.1209286,35.8011257 46.1555571,35.83864 L46.1555571,35.83864 C46.2075,35.8963543 46.2681,35.9627257 46.3431286,36.0348686 C46.5739857,36.26284 46.9000714,36.4965829 47.1828714,36.2051257 C47.4685571,35.9165543 47.2405857,35.6135543 46.9895286,35.3682686 C46.9289286,35.3076686 46.8712143,35.2557257 46.8163857,35.2066686 C46.7586714,35.1547257 46.7038429,35.1056686 46.6634429,35.0623829 C46.4268143,34.82864 46.1930714,34.5891257 45.9564429,34.3467257 C45.5062714,33.8878971 45.0532143,33.4261829 44.5539857,32.9586971 C44.1528714,32.58644 43.2150143,31.6860971 42.4647286,30.8838686 C41.9943571,30.3788686 41.5961286,29.9113829 41.4489571,29.6343543 C41.0824714,28.9331257 41.1863571,28.5983829 41.3508429,28.0472114 C41.3739286,27.9635257 41.4027857,27.8711829 41.4229857,27.79904 L41.4662714,27.6432114 L41.6076714,27.7240114 Z" id="Fill-8" fill="#231F20"></path>
                    <path d="M54.1663,31.6664743 C54.3163571,31.7790171 54.9656429,32.4138743 55.5485571,33.00256 C56.0477857,33.5104457 56.5008429,33.9952457 56.5499,34.0991314 L56.5816429,34.1626171 L56.5412429,34.2232171 C55.8890714,35.1697314 55.0897286,35.1726171 54.4952714,35.1755029 C54.0855,35.1783886 53.7998143,35.1783886 53.8229,35.6256743 C53.8315571,35.7266743 53.8661857,35.81036 53.9296714,35.8767314 C54.0133571,35.9690743 54.1432143,36.0354457 54.3019286,36.0758457 C54.4693,36.1191314 54.6713,36.13356 54.8877286,36.1220171 C55.4821857,36.0873886 56.1747571,35.8449886 56.6307,35.42656 C57.3838714,34.7368743 58.6853286,33.4094457 59.7645857,32.3071029 C60.2061,31.8569314 60.6101,31.4413886 60.9217571,31.1326171 L60.9217571,31.1297314 L63.0456429,29.0404743 C63.1062429,28.9741029 63.1466429,28.9048457 63.1755,28.8327029 L63.1755,28.8327029 C63.2101286,28.74036 63.2216714,28.6451314 63.2043571,28.55856 C63.1899286,28.47776 63.1553,28.4056171 63.0947,28.3507886 C63.0629571,28.3219314 63.0254429,28.2988457 62.9821571,28.2844171 C62.6156714,28.1430171 62.1857,28.5931886 61.7355286,29.0606743 C61.6374143,29.1616743 61.5393,29.2626743 61.4440714,29.3579029 L57.8946429,32.9188743 C57.7994143,33.0141029 57.6984143,33.08336 57.5916429,33.1295314 C57.4589,33.18436 57.3232714,33.2074457 57.1963,33.1901314 C57.0635571,33.1728171 56.9423571,33.1151029 56.8442429,33.02276 C56.7865286,32.9650457 56.7345857,32.8929029 56.6970714,32.8092171 C56.4604429,32.2522743 57.1328143,31.6433886 57.5801,31.2422743 C57.6580143,31.1701314 57.7272714,31.1066457 57.7936429,31.0402743 L60.6447286,28.1891886 C60.6707,28.1632171 60.7197571,28.1199314 60.7774714,28.0679886 L60.7745857,28.0679886 C60.9621571,27.8977314 61.2853571,27.60916 61.4700429,27.3205886 C61.6201,27.08396 61.6749286,26.8444457 61.4383,26.6915029 C61.0573857,26.4491029 60.6533857,26.88196 60.2061,27.3552171 C60.1051,27.4648743 60.0012143,27.5774171 59.9059857,27.6726457 C59.7270714,27.85156 59.5539286,28.0247029 59.3836714,28.1978457 C59.0806714,28.5008457 58.7834429,28.7980743 58.4631286,29.1183886 C58.0475857,29.5397029 57.6666714,29.9177314 57.2569,30.3246171 L57.0549,30.5237314 C57.0231571,30.55836 56.9769857,30.6074171 56.9250429,30.6680171 C56.7547857,30.8584743 56.4979571,31.1470457 56.2180429,31.34616 C55.8486714,31.6116457 55.4417857,31.7213029 55.1387857,31.2942171 C54.7405571,30.7372743 55.3494429,30.17456 55.8775286,29.68976 C55.9554429,29.6205029 56.0304714,29.54836 56.0910714,29.4906457 L59.6462714,25.9354457 L59.6491571,25.93256 C59.9117571,25.6872743 59.9839,25.4333314 59.9406143,25.2486457 C59.9261857,25.1822743 59.8944429,25.12456 59.8511571,25.0812743 C59.8107571,25.0379886 59.7559286,25.0062457 59.6924429,24.9918171 C59.5250714,24.9514171 59.2971,25.0206743 59.0604714,25.2688457 L59.0575857,25.2717314 L52.6715,31.6837886 C52.4608429,31.9435029 52.2848143,32.27536 52.1838143,32.65916 C52.0914714,33.0054457 52.0626143,33.3892457 52.1203286,33.7932457 C52.1665,34.1164457 52.3165571,34.3069029 52.4839286,34.3732743 C52.5474143,34.3992457 52.6109,34.4079029 52.6715,34.3992457 C52.7349857,34.3934743 52.7927,34.3703886 52.8446429,34.3299886 C52.9831571,34.2289886 53.0783857,34.0154457 53.0408714,33.6980171 C52.9918143,33.2507314 53.0668429,32.8438457 53.2313286,32.5033314 C53.4073571,32.1368457 53.6872714,31.8453886 54.0306714,31.6578171 L54.1028143,31.6174171 L54.1663,31.6664743 Z" id="Fill-10" fill="#231F20"></path>
                    <path d="M74.2338457,77.6082 C73.8817886,77.9112 73.9019886,78.5200857 74.6493886,79.4002286 C75.3708171,80.2457429 76.1615029,80.6353143 76.6289886,80.2370857 C77.0849314,79.8417429 76.7905886,79.1895714 76.1643886,78.4710286 C75.4920171,77.6976571 74.6897886,77.2157429 74.2338457,77.6082" id="Fill-12" fill="#231F20"></path>
                    <path d="M24.4933657,75.5327943 C24.5943657,75.6395657 24.7271086,75.7492229 24.8598514,75.7809657 C24.9175657,75.79828 25.0099086,75.7405657 25.0878229,75.6684229 C25.33888,75.4289086 25.3706229,75.1230229 25.1253371,74.8604229 C24.8194514,74.5372229 24.2538514,74.5516514 24.0085657,74.7825086 C23.8989086,74.8835086 23.9941371,74.9989371 24.2249943,75.2471086 L24.4933657,75.5327943 Z" id="Fill-14" fill="#231F20"></path>
                    <path d="M31.65138,80.35742 C31.2589229,80.1092486 30.6846657,80.3054771 30.0700086,81.2808486 C29.4755514,82.2215914 29.3312657,83.0959629 29.8478086,83.4249343 C30.3556943,83.7481343 30.8924371,83.2748771 31.3945514,82.4639914 C31.93418,81.5925057 32.1592657,80.68062 31.65138,80.35742" id="Fill-16" fill="#231F20"></path>
                    <path d="M59.7827657,86.0414114 L60.16368,85.9519543 C60.3079657,85.9202114 60.46668,85.8624971 60.5647943,85.7614971 C60.60808,85.7182114 60.6051943,85.61144 60.5792229,85.5075543 C60.5041943,85.16704 60.2560229,84.98524 59.9039657,85.06604 C59.4739943,85.16704 59.1998514,85.6662686 59.27488,85.99524 C59.3066229,86.1395257 59.4537943,86.11644 59.7827657,86.0414114" id="Fill-18" fill="#231F20"></path>
                    <path d="M50.9735457,86.1880057 C50.5089457,86.2024343 50.1453457,86.6930057 50.1857457,87.8472914 C50.2203743,88.9582914 50.5955171,89.7634057 51.2072886,89.7432057 C51.8075171,89.7230057 51.9864314,89.0275486 51.9431457,88.0752629 C51.89986,87.0479486 51.5737743,86.1678057 50.9735457,86.1880057" id="Fill-20" fill="#231F20"></path>
                    <path d="M86.0387257,74.4688314 C85.1499257,75.7039171 84.2640114,75.7414314 83.73304,75.3576314 C83.5281543,75.2075743 83.4848686,74.9796029 83.5050686,74.7689457 C83.5252686,74.5265457 83.5252686,74.2899171 83.5425829,74.1571743 C83.5570114,74.0100029 83.4964114,74.0042314 83.43004,74.0619457 C83.0981829,74.3043457 82.66244,74.3158886 82.3623257,74.0965743 C82.2930686,74.0475171 82.23824,73.9811457 82.2266971,73.9061171 C82.2468971,73.55406 82.2353543,73.1529457 82.2209257,73.0663743 C82.2151543,72.9451743 82.1891829,72.8730314 82.0824114,72.8586029 C81.6004971,73.1644886 80.9742971,73.1673743 80.4519829,72.7893457 C79.7449829,72.2728029 79.4794971,71.23106 80.2817257,70.1142886 C80.6482114,69.6064029 81.1214686,69.2572314 81.5196971,69.0638886 L82.2324686,68.0769743 C82.3248114,68.0538886 82.4056114,68.0885171 82.50084,68.1548886 C82.6364686,68.2558886 82.7605543,68.4088314 82.7490114,68.5329171 L82.2930686,69.1677743 C82.37964,69.2081743 82.4662114,69.2543457 82.6104971,69.3582314 C83.2857543,69.8488029 83.81384,70.8501457 82.8384686,72.2064314 C82.7374686,72.3449457 82.6364686,72.4517171 82.5585543,72.5411743 C82.5325829,72.6508314 82.5556686,72.7604886 82.6595543,72.8355171 C82.8471257,72.9711457 83.0952971,72.8788029 83.2799829,72.6219743 C83.4935257,72.3305171 83.7272686,71.9640314 84.0187257,71.5600314 C84.4833257,70.9165171 85.14704,70.3538029 86.0098686,70.9828886 C86.5494971,71.37246 86.7918971,72.0477171 86.7457257,72.6912314 C86.6880114,73.33186 86.39944,73.9696029 86.0387257,74.4688314 L86.0387257,74.4688314 Z M80.4029257,77.0457743 C80.1201257,77.37186 79.8200114,77.7296886 79.6064686,78.0067171 C79.4968114,78.03846 79.3121257,77.87686 79.3207829,77.7729743 L79.4362114,77.6056029 C79.6410971,77.3199171 79.5978114,77.2275743 79.0408686,76.7398886 L77.85484,75.7039171 C77.5402971,75.4268886 77.4421829,75.3432029 77.2170971,75.41246 L77.04684,75.4615171 C76.9516114,75.4759457 76.8073257,75.35186 76.8073257,75.2537457 C77.0237543,74.7949171 77.2863543,74.0561743 77.3411829,73.6694886 C77.3960114,73.6060029 77.4623829,73.5771457 77.5374114,73.5858029 C77.6816971,73.7416314 77.7798114,73.85706 77.8519543,73.91766 C77.9096686,73.9667171 77.9442971,73.9724886 78.01644,73.9234314 C78.0683829,73.5886886 78.0048971,73.1269743 78.2963543,72.7893457 C78.4839257,72.5729171 78.84464,72.4950029 79.14764,72.7604886 C79.5141257,73.0808029 79.4419829,73.4674886 79.2226686,73.7243171 C79.1245543,73.83686 78.9946971,73.8888029 78.8100114,73.9118886 C78.4983543,73.9638314 78.4290971,74.0273171 78.3858114,74.0763743 C78.2876971,74.1889171 78.4290971,74.38226 78.7320971,74.64486 L79.9412114,75.6981457 C80.4981543,76.1858314 80.5876114,76.2089171 80.8415543,75.9665171 L81.08684,75.7298886 C81.18784,75.7096886 81.3725257,75.8712886 81.3580971,75.9838314 C81.0118114,76.3532029 80.7290114,76.6706314 80.4029257,77.0457743 L80.4029257,77.0457743 Z M76.8534971,80.6817743 C75.9012114,81.5042029 74.60264,81.6715743 73.6474686,80.5692314 C72.6576686,79.4236029 73.0212686,78.0096029 73.9677829,77.1958314 C74.9114114,76.38206 76.2532686,76.2320029 77.2228686,77.3660886 C78.2242114,78.54346 77.8404114,79.8333743 76.8534971,80.6817743 L76.8534971,80.6817743 Z M72.9924114,83.6050029 C72.6374686,83.83586 72.0920686,83.7868029 71.8092686,83.35106 C71.5408971,82.9326314 71.6505543,82.4045457 72.0487829,82.1448314 C72.4729829,81.8678029 72.9952971,82.0351743 73.2434686,82.4160886 C73.5060686,82.82586 73.4137257,83.3250886 72.9924114,83.6050029 L72.9924114,83.6050029 Z M69.9508686,85.4634029 C69.1659543,85.85586 68.6667257,85.5355457 68.3579543,84.9093457 L67.31044,82.7941171 C67.2123257,82.5950029 67.1921257,82.5805743 67.0218686,82.6671457 L66.7304114,82.8143171 C66.6063257,82.82586 66.4851257,82.6498314 66.5284114,82.5459457 C66.7679257,82.2948886 66.94684,81.9918886 67.0997829,81.7292886 C67.20944,81.5186314 67.3450686,81.2012029 67.43164,80.6384886 C67.4778114,80.5663457 67.65384,80.4913171 67.7375257,80.54326 L68.0895829,81.2560314 C68.1819257,81.4378314 68.1934686,81.4407171 68.3637257,81.3570314 L69.2063543,80.9357171 C69.26984,80.9501457 69.3275543,80.9934314 69.37084,81.0771171 C69.4198971,81.1838886 69.4776114,81.3685743 69.41124,81.47246 L68.5599543,81.89666 C68.4387543,81.95726 68.4329829,81.9716886 68.5368686,82.17946 L69.2409829,83.6050029 C69.5064686,84.1359743 69.7979257,84.7217743 70.4587543,84.3928029 C70.5886114,84.3264314 70.7098114,84.1850314 70.7819543,84.0522886 C70.8916114,84.0320886 71.0012686,84.1100029 71.0387829,84.2312029 C70.9146971,84.6496314 70.5366686,85.16906 69.9508686,85.4634029 L69.9508686,85.4634029 Z M65.7838971,87.39106 C64.5488114,87.8816314 63.3772114,87.3939457 62.9183829,86.2310029 C62.3643257,84.8314314 63.1665543,83.55306 64.4882114,83.0249743 C64.8200686,82.8922314 65.2817829,82.7883457 65.5847829,82.7825743 C65.75504,82.8402886 65.8877829,82.94706 65.9916686,83.2125457 C66.1099829,83.5068886 66.07824,83.8272029 65.9599257,83.87626 C65.9108686,83.89646 65.81564,83.9108886 65.7810114,83.8878029 C65.3539257,83.6050029 64.8344971,83.41166 64.48244,83.55306 C63.8446971,83.8070029 63.7898686,84.6727171 64.05824,85.35086 C64.3670114,86.1328886 65.1778971,86.7186886 66.07824,86.3579743 C66.44184,86.2136886 66.6900114,85.97706 66.7592686,85.5297743 C66.8746971,85.47206 67.0391829,85.4836029 67.1026686,85.6423171 C67.0795829,86.2223457 66.7159829,87.0188029 65.7838971,87.39106 L65.7838971,87.39106 Z M60.8002686,89.0128314 C59.41224,89.3331457 58.4397543,88.5280314 58.18004,87.4026029 C57.8799257,86.1011457 58.58404,84.8718314 59.8681829,84.5746029 C60.9358971,84.3264314 61.6717543,84.8833743 61.8535543,85.6798314 C61.8997257,85.87606 61.8795257,86.0318886 61.5620971,86.1069171 L59.5882686,86.56286 C59.35164,86.6176886 59.3372114,86.64366 59.3747257,86.8081457 C59.55364,87.5844029 60.22024,88.2250314 61.1754114,87.9999457 C61.4610971,87.93646 61.8391257,87.7835171 62.0064971,87.2438886 C62.1161543,87.1977171 62.2892971,87.2438886 62.3296971,87.4199171 C62.1103829,88.3952886 61.4178114,88.8685457 60.8002686,89.0128314 L60.8002686,89.0128314 Z M56.7775829,90.8221743 C56.58424,91.6013171 56.1715829,92.1524886 54.8758971,92.7671457 C54.7114114,92.7354029 54.6363829,92.54206 54.6883257,92.4381743 C54.8932114,92.2967743 55.0750114,92.1149743 55.1558114,91.99666 C55.51364,91.5378314 55.61464,90.7673457 55.4588114,89.4860886 L55.1644686,87.0130314 C55.1154114,86.5917171 55.0980971,86.4647457 54.8845543,86.3637457 L54.72584,86.2858314 C54.6479257,86.2310029 54.62484,86.0434314 54.6883257,85.9712886 C55.1644686,85.7721743 55.8628114,85.4028029 56.1658114,85.1719457 C56.2494971,85.1632886 56.3158686,85.1863743 56.3649257,85.2440886 C56.38224,85.5644029 56.4284114,86.0261171 56.48324,86.4993743 L56.7948971,89.0994029 C56.8814686,89.8266029 56.88724,90.40086 56.7775829,90.8221743 L56.7775829,90.8221743 Z M51.1071543,90.2334886 C49.8518686,90.2767743 48.7322114,89.59286 48.6744971,88.1298029 C48.6138971,86.6148029 49.77684,85.7404314 51.0205829,85.7000314 C52.2643257,85.6567457 53.4070686,86.3839457 53.4561257,87.87586 C53.5080686,89.4226029 52.40284,90.1902029 51.1071543,90.2334886 L51.1071543,90.2334886 Z M48.1954686,86.2108029 C48.1377543,86.6956029 47.7799257,86.8543171 47.4422971,86.8139171 C47.2980114,86.7966029 47.1796971,86.7186886 47.0584971,86.5744029 C46.8420686,86.3464314 46.74684,86.3233457 46.68624,86.3146886 C46.5390686,86.30026 46.4582686,86.5253457 46.4120971,86.9206886 L46.22164,88.5193743 C46.1321829,89.2581171 46.1639257,89.3446886 46.5073257,89.4197171 L46.8391829,89.49186 C46.9142114,89.5640029 46.8853543,89.8064029 46.7814686,89.8583457 C46.28224,89.7775457 45.8638114,89.7198314 45.37324,89.6621171 C44.9432686,89.6101743 44.4815543,89.5611171 44.1352686,89.5409171 C44.0458114,89.4658886 44.0746686,89.2206029 44.1670114,89.16866 L44.3690114,89.1715457 C44.7181829,89.1830886 44.7701257,89.0907457 44.8595829,88.3548886 L45.0471543,86.7908314 C45.0962114,86.3724029 45.11064,86.2454314 44.9259543,86.0924886 L44.7932114,85.9828314 C44.72684,85.9106886 44.7499257,85.7202314 44.8307257,85.6654029 C45.3299543,85.5874886 46.0831257,85.39126 46.4351829,85.2181171 C46.5188686,85.22966 46.5765829,85.2671743 46.6112114,85.3364314 C46.56504,85.5442029 46.5275257,85.6884886 46.5159829,85.7837171 C46.5073257,85.8587457 46.52464,85.8904886 46.60544,85.9222314 C46.90844,85.7779457 47.2547257,85.4691743 47.6933543,85.5211171 C47.9761543,85.5557457 48.2445257,85.8096886 48.1954686,86.2108029 L48.1954686,86.2108029 Z M43.3763257,86.9437743 C42.9954114,88.3750886 41.7228114,89.0965171 40.2337829,88.6982886 C40.0923829,88.6578886 39.8701829,88.5886314 39.7836114,88.54246 C39.6883829,88.5395743 39.6104686,88.5857457 39.5527543,88.7964029 L39.2814971,89.8121743 C39.09104,90.5249457 39.11124,90.6201743 39.4402114,90.7413743 L39.77784,90.86546 C39.8442114,90.94626 39.7807257,91.1828886 39.6710686,91.2204029 C39.1660686,91.0645743 38.7620686,90.94626 38.28304,90.8192886 C37.8357543,90.6980886 37.43464,90.5970886 37.0623829,90.5191743 C36.9873543,90.4326029 37.05084,90.1959743 37.1489543,90.15846 L37.3596114,90.1902029 C37.7030114,90.2508029 37.7664971,90.1700029 37.9569543,89.4543457 L39.0650686,85.2989171 C39.1747257,84.8920314 39.2064686,84.7679457 39.0448686,84.5919171 L38.92944,84.46206 C38.8746114,84.3841457 38.9207829,84.19946 39.01024,84.1561743 C39.4604114,84.1446314 40.3116971,84.0234314 40.6493257,83.9051171 C40.7214686,83.9137743 40.8138114,83.9830314 40.82824,84.0869171 C40.7762971,84.2052314 40.74744,84.3148886 40.7185829,84.4187743 C40.7012686,84.4909171 40.7243543,84.56306 40.7647543,84.58326 C41.11104,84.5111171 41.6246971,84.3783743 42.1643257,84.52266 C43.2464686,84.8112314 43.6706686,85.83566 43.3763257,86.9437743 L43.3763257,86.9437743 Z M36.9209829,87.5180314 C36.50544,87.3073743 36.1360686,87.1313457 35.7695829,86.96686 C35.3828971,86.7937171 34.9269543,86.6003743 34.4767829,86.42146 C34.40464,86.3435457 34.4912114,86.1011457 34.5979829,86.0694029 L34.8259543,86.1242314 C34.9731257,86.1559743 35.0192971,86.1300029 35.0366114,86.0924886 C35.0568114,86.0520886 35.0596971,85.9395457 35.0394971,85.7779457 C34.9990971,85.5066886 34.9644686,85.2469743 34.90964,84.9555171 C34.6845543,85.0969171 34.4508114,85.2585171 34.2286114,85.4143457 C34.0929829,85.5153457 34.0150686,85.5874886 33.9890971,85.6452029 C33.9688971,85.69426 33.9977543,85.7288886 34.1189543,85.8183457 L34.2603543,85.91646 C34.3122971,86.0116886 34.1853257,86.2425457 34.0900971,86.2483171 C33.81884,86.1011457 33.53604,85.9626314 33.2388114,85.8298886 C33.0137257,85.7288886 32.7799829,85.6365457 32.4740971,85.5211171 C32.4077257,85.4345457 32.4740971,85.2065743 32.6039543,85.1719457 L32.8636686,85.2412029 C33.0396971,85.2873743 33.2705543,85.31046 33.4004114,85.2527457 C33.6110686,85.1719457 34.4161829,84.7333171 34.6412686,84.5919171 C34.7422686,84.5197743 34.8028686,84.4649457 34.8230686,84.4158886 C34.8403829,84.3783743 34.8115257,84.2138886 34.7451543,83.7666029 L34.5806686,82.7306314 C34.5200686,82.3439457 34.3728971,82.1823457 34.18244,82.0409457 L34.0035257,81.9024314 C33.9573543,81.8216314 34.0727829,81.5619171 34.18244,81.57346 C34.5489257,81.7639171 34.8057543,81.8908886 35.33384,82.1275171 C35.6801257,82.2833457 36.02064,82.4247457 36.3784686,82.5603743 C36.4765829,82.6498314 36.3784686,82.8980029 36.2457257,82.9095457 L36.1158686,82.88646 C36.0350686,82.8604886 35.9571543,82.8604886 35.9427257,82.88646 C35.9254114,82.92686 35.9225257,82.9845743 35.93984,83.12886 C35.9686971,83.4001171 36.02064,83.6454029 36.0725829,83.8993457 C36.2284114,83.8041171 36.4938971,83.6482886 36.7507257,83.4838029 C36.84884,83.4232029 36.8748114,83.3885743 36.8978971,83.3395171 C36.9152114,83.3020029 36.8632686,83.2558314 36.7824686,83.1836886 L36.68724,83.10866 C36.62664,83.0105457 36.7536114,82.7768029 36.8661543,82.7825743 C37.1374114,82.92686 37.3855829,83.04806 37.7318686,83.2038886 C37.9713829,83.31066 38.2282114,83.4145457 38.4763829,83.5040029 C38.5600686,83.5761457 38.4561829,83.8329743 38.34364,83.8502886 L38.20224,83.8098886 C37.9050114,83.7233171 37.7434114,83.6973457 37.5471829,83.7262029 C37.37404,83.7521743 36.8257543,83.9916886 36.4794686,84.1734886 C36.2947829,84.2773743 36.1908971,84.3322029 36.1678114,84.3841457 C36.14184,84.44186 36.1706971,84.6871457 36.20244,84.8516314 L36.4217543,86.1213457 C36.5342971,86.7764029 36.6843543,86.9582029 36.9988971,87.1342314 L37.1027829,87.1919457 C37.1489543,87.2958314 37.0450686,87.5266886 36.9209829,87.5180314 L36.9209829,87.5180314 Z M29.4902686,83.77526 C28.4312114,83.0971171 27.8915829,81.8995457 28.6620686,80.6586886 C29.4614114,79.3745457 30.9129257,79.31106 31.9662114,79.9805457 C33.0137257,80.6529171 33.5533543,81.89666 32.7540114,83.1577171 C31.9286971,84.4649457 30.58684,84.4736029 29.4902686,83.77526 L29.4902686,83.77526 Z M28.0358686,78.2952886 L26.9998971,79.4957457 C26.6103257,79.9430314 26.1803543,80.4393743 26.7401829,80.92706 C26.84984,81.0222886 27.0258686,81.0800029 27.1788114,81.0973171 C27.2365257,81.1925457 27.2076686,81.3224029 27.1095543,81.4032029 C26.6795829,81.4493743 26.0533829,81.2964314 25.5599257,80.86646 C24.8990971,80.2893171 25.0029829,79.7035171 25.4589257,79.1754314 L27.0027829,77.39206 C27.1470686,77.2246886 27.15284,77.2016029 27.0085543,77.0746314 L26.7603829,76.8610886 C26.7026686,76.7514314 26.8180971,76.5725171 26.93064,76.5725171 C27.2509543,76.6966029 27.6001257,76.7485457 27.9031257,76.7889457 C28.1339829,76.8091457 28.4773829,76.8149171 29.03144,76.6792886 C29.11224,76.6937171 29.2507543,76.8293457 29.23344,76.92746 L28.7140114,77.5276886 C28.5841543,77.6777457 28.5841543,77.69506 28.72844,77.8191457 L29.43544,78.4366886 C29.4498686,78.50306 29.4296686,78.5723171 29.3690686,78.64446 C29.2911543,78.7339171 29.1439829,78.8580029 29.0227829,78.8349171 L28.3071257,78.2087171 C28.20324,78.11926 28.1888114,78.11926 28.0358686,78.2952886 L28.0358686,78.2952886 Z M23.2455829,77.4440029 C23.4475829,77.6604314 23.7678971,77.9086029 24.3161829,77.7816314 C24.4114114,77.8537743 24.4604686,78.0269171 24.3306114,78.1510029 C23.3812114,78.4540029 22.6222686,78.0932886 22.1894114,77.6315743 C21.2111543,76.5927171 21.4102686,75.3374314 22.2471257,74.54386 C23.21384,73.6290886 24.6220686,73.6175457 25.5281829,74.5813743 C26.2813543,75.3807171 26.1716971,76.30126 25.5830114,76.8610886 C25.43584,76.9967171 25.2915543,77.0602029 25.0693543,76.8235743 L23.67844,75.3432029 C23.5110686,75.1671743 23.4822114,75.1671743 23.3581257,75.2826029 C22.7838686,75.8280029 22.5703257,76.7283457 23.2455829,77.4440029 L23.2455829,77.4440029 Z M20.1953829,74.3793743 C20.3021543,74.5352029 20.3685257,74.5929171 20.5214686,74.70546 C20.5099257,74.8555171 20.2934971,75.00846 20.1549829,74.9738314 C19.5085829,74.1485171 18.7784971,73.6521743 18.7611829,73.6262029 C18.7178971,73.5656029 18.7207829,73.4588314 18.7784971,73.39246 L19.0670686,73.23086 C19.1276686,73.1760314 19.1305543,73.1212029 19.0786114,73.1067743 C18.6803829,72.9336314 18.2821543,72.7489457 18.0570686,72.4257457 C17.3702686,71.4359457 17.67904,70.2268314 18.6140114,69.5717743 C19.8346686,68.7204886 21.2515543,69.0985171 22.0451257,70.2470314 C22.1778686,70.4374886 22.3077257,70.6568029 22.34524,70.7722314 C22.4144971,70.8126314 22.5010686,70.7924314 22.5703257,70.7433743 L23.67844,69.9671171 C24.0247257,69.7276029 24.1199543,69.6583457 24.1055257,69.41306 L24.0882114,69.2052886 C24.0910971,69.0985171 24.2526971,68.9975171 24.3479257,69.0234886 C24.6942114,69.3380314 25.2684686,69.7218314 25.7532686,70.0161743 C25.7965543,70.0767743 25.8138686,70.14026 25.7965543,70.2066314 C25.4300686,70.4374886 25.0606971,70.6827743 24.5152971,71.0636886 L21.0668686,73.47326 C20.2530971,74.0417457 20.0799543,74.2148886 20.1953829,74.3793743 L20.1953829,74.3793743 Z M55.4097543,83.0105457 C55.8483829,82.9586029 56.18024,83.25006 56.2321829,83.6713743 C56.2898971,84.1763743 55.9349543,84.4851457 55.5367257,84.5342029 C55.0778971,84.5890314 54.7691257,84.3062314 54.7171829,83.87626 C54.6594686,83.41166 54.9913257,83.0624886 55.4097543,83.0105457 L55.4097543,83.0105457 Z M75.39044,66.7726314 C69.87584,74.2726029 61.0542114,78.7483457 51.7506686,78.7483457 C42.4500114,78.7483457 33.6283829,74.2726029 28.1137829,66.7726314 L8.28026857,66.7726314 C15.3271829,84.4130029 32.7164971,96.2271171 51.7506686,96.2271171 C70.78484,96.2271171 88.17704,84.4130029 95.2239543,66.7726314 L75.39044,66.7726314 Z" id="Fill-22" fill="#231F20"></path>
                    <path d="M85.9007886,72.2751114 C85.4044457,71.9143971 84.9427314,72.1423686 84.6022171,72.61274 L84.18956,73.1869971 C84.0221886,73.42074 83.9500457,73.6285114 83.9529314,73.7497114 C83.96736,73.8911114 84.0539314,74.00654 84.1664743,74.08734 C84.7465029,74.5086543 85.4390743,74.3441686 85.92676,73.6660257 C86.3163314,73.1263971 86.31056,72.57234 85.9007886,72.2751114" id="Fill-24" fill="#231F20"></path>
                    <path d="M21.6893171,71.2688629 C21.7989743,71.0380057 21.8047457,70.7494343 21.6662314,70.55032 C21.3603457,70.10592 20.5985171,69.9933771 19.6895171,70.6282343 C19.1181457,71.0264629 18.50926,71.8373486 19.0056029,72.55012 C19.0892886,72.6742057 19.2076029,72.77232 19.3547743,72.8358057 C19.4817457,72.8906343 19.60006,72.8184914 19.7587743,72.71172 L21.43826,71.5372343 C21.5738886,71.43912 21.6431457,71.3525486 21.6893171,71.2688629" id="Fill-26" fill="#231F20"></path>
                    <path d="M82.0708686,70.6152486 C81.3782971,70.1131343 80.8732971,70.1275629 80.6510971,70.4363343 C80.46064,70.70182 80.5298971,71.14622 81.1099257,71.5675343 C81.7620971,72.0407914 82.3421257,72.0811914 82.5902971,71.7377914 C82.7807543,71.4723057 82.6941829,71.0683057 82.0708686,70.6152486" id="Fill-28" fill="#231F20"></path>
                    <path d="M41.1424943,85.0042857 C40.9693514,84.9581143 40.7846657,84.9494571 40.6750086,85.0331429 C40.6086371,85.0793143 40.5134086,85.1947429 40.4066371,85.5958571 L39.9708943,87.2320571 C39.9102943,87.4600286 39.93338,87.6966571 40.0459229,87.89 C40.1411514,88.0689143 40.3085229,88.2132 40.4730086,88.2564857 C41.10498,88.4267429 41.63018,87.8438286 41.8841229,86.8915429 C42.1524943,85.8902 41.8148657,85.1832 41.1424943,85.0042857" id="Fill-30" fill="#231F20"></path>
                    <path d="M32.2726743,13.37422 C31.9090743,13.5704486 31.66956,13.7349343 31.5570171,13.8330486 L32.8642457,16.2455057 C33.0114171,16.1849057 33.1874457,16.1069914 33.4558171,15.9627057 C34.43696,15.4317343 34.7832457,14.5919914 34.3417314,13.77822 C33.9608171,13.0769914 33.2393886,12.84902 32.2726743,13.37422" id="Fill-32" fill="#231F20"></path>
                    <path d="M58.5217086,8.99226286 C57.1827371,8.76717714 56.10348,9.91280571 55.7745086,11.8664343 C55.4426514,13.8633486 56.1005943,15.2369486 57.4713086,15.46492 C58.8391371,15.6957771 59.8664514,14.4924343 60.1867657,12.5705486 C60.4926514,10.7438914 59.9039657,9.22312 58.5217086,8.99226286" id="Fill-34" fill="#231F20"></path>
                    <path d="M78.3356,21.12698 L76.6532286,22.1802657 L78.0758857,23.5798371 L79.0772286,21.85418 C79.386,21.30878 79.8650286,20.5267514 80.1766857,19.9611514 L80.1536,19.9380657 C79.6024286,20.2699229 78.8636857,20.7951229 78.3356,21.12698" id="Fill-36" fill="#231F20"></path>
                    <path d="M91.8101543,42.0738029 L90.7366686,38.1146029 L89.0744971,38.5647743 L90.0844971,42.2931171 L87.8365257,42.9020029 L86.8265257,39.17366 L84.9161829,39.6902029 L86.0444971,43.8658314 L83.7647829,44.4833743 L81.8804114,37.5201457 L92.2632114,34.70946 L94.0898686,41.45626 L91.8101543,42.0738029 Z M80.1201257,34.0515171 L78.64264,31.5698029 L85.8020971,27.3133743 L84.4025257,24.95286 L86.4860114,23.7120029 L90.7914971,30.9551457 L88.7051257,32.1960029 L87.2795829,29.7950886 L80.1201257,34.0515171 Z M75.6184114,27.6308029 L76.8736971,25.3712886 L74.8940971,23.4263171 L72.7153829,24.7768314 L70.5886114,22.6875743 L80.3423257,17.1931743 L83.08664,19.8884314 L77.8375257,29.8095171 L75.6184114,27.6308029 Z M65.8704686,20.5232886 C64.7219543,19.9288314 63.7581257,19.0486886 63.3685543,18.48886 L64.9441543,16.6275743 C65.3683543,17.2278029 66.1503829,18.0098314 67.1113257,18.50906 C67.9914686,18.9650029 68.5714971,18.8870886 68.8196686,18.40806 C69.0620686,17.9405743 68.7792686,17.4500029 67.8933543,16.5236886 C66.5716971,15.1183457 65.9599257,13.6668314 66.6957829,12.2528314 C67.5701543,10.5675743 69.6767257,10.0077457 72.0862971,11.25726 C73.2174971,11.84306 73.9273829,12.4836886 74.4035257,13.0925743 L72.8077257,14.8499743 C72.4931829,14.4517457 71.9246971,13.8168886 70.9752971,13.3234314 C70.1961543,12.9194314 69.6247829,12.9800314 69.4025829,13.4071171 C69.1544114,13.8861457 69.5612971,14.3507457 70.5366686,15.4155743 C71.9189257,16.9421171 72.2074971,18.2608886 71.5149257,19.5883171 C70.6607543,21.2331743 68.6580686,21.9719171 65.8704686,20.5232886 L65.8704686,20.5232886 Z M63.2069543,12.99446 C62.6355829,16.4111457 60.2260114,18.2406886 56.9507257,17.6924029 C53.6638971,17.1412314 52.2672114,14.36806 52.7577829,11.4246314 C53.2772114,8.32537429 55.7040971,6.20726 58.9591829,6.75266 C62.3758686,7.32403143 63.6830971,10.1491457 63.2069543,12.99446 L63.2069543,12.99446 Z M47.73664,17.29706 L46.9776971,13.1012314 L43.5408114,13.72166 L44.2968686,17.9146029 L41.45444,18.42826 L39.5440971,7.84346 L42.3894114,7.32980286 L43.0935257,11.2399457 L46.5332971,10.6224029 L45.8262971,6.71226 L48.6687257,6.19860286 L50.5761829,16.7834029 L47.73664,17.29706 Z M37.1576114,15.19626 C36.7622686,16.2784029 35.8215257,17.1874029 34.5431543,17.8770886 C34.2920971,18.0156029 34.0670114,18.0992886 33.9111829,18.1829743 L35.6512686,21.39766 L33.1349257,22.7568314 L28.0964686,13.4359743 C28.7255543,12.9511743 29.6691829,12.3134314 31.1004971,11.54006 C32.4625543,10.8042029 33.5793257,10.5242886 34.5142971,10.6743457 C35.4175257,10.8042029 36.3005543,11.3957743 36.8228686,12.3653743 C37.3394114,13.31766 37.4634971,14.3218886 37.1576114,15.19626 L37.1576114,15.19626 Z M28.0445257,27.4836314 L24.9885543,24.3988029 L18.0714971,22.2287457 L20.4175829,19.8999743 L22.76944,20.9821171 C23.5024114,21.3139743 24.0304971,21.5534886 24.6942114,21.88246 L24.7172971,21.86226 C24.40564,21.2504886 24.1257257,20.6733457 23.8025257,19.9605743 L22.7174971,17.62026 L25.0289543,15.3290029 L26.9623829,22.2893457 L30.0962686,25.4492029 L28.0445257,27.4836314 Z M22.7348114,35.0355457 L13.5957543,29.3593457 L15.1222971,26.9064886 L22.2124971,31.3100886 L24.3940971,27.7981743 L26.4400686,29.0707743 L22.7348114,35.0355457 Z M21.0553257,40.0191743 C20.5156971,42.0536029 19.6413257,43.3088886 18.4956971,44.0101171 C17.31544,44.7373171 15.8379543,44.8931457 14.3402686,44.4949171 C10.7360114,43.5253171 9.61346857,40.3394886 10.5051543,36.9776314 C10.8774114,35.5751743 11.4054971,34.5738314 11.8094971,34.10346 L13.8843257,35.2462029 C13.4803257,35.7685171 13.1109543,36.42646 12.7992971,37.6009457 C12.34624,39.3121743 12.8656686,40.9685743 14.9780114,41.5284029 C16.9200971,42.04206 18.3773829,41.09266 18.8275543,39.39586 C18.93144,39.0091743 18.99204,38.6455743 18.9689543,38.4897457 L17.1798114,38.0164886 L16.81044,39.4045171 L14.6519257,38.8331457 L15.7282971,34.7614029 L21.4218114,36.2677457 C21.4737543,37.1248029 21.41604,38.6600029 21.0553257,40.0191743 L21.0553257,40.0191743 Z M51.7506686,2.63474571 C25.9494971,2.63474571 4.95592571,23.6254314 4.95592571,49.4294886 C4.95592571,49.69786 4.96169714,49.9633457 4.96458286,50.2317171 L22.44624,50.2317171 C22.4375829,49.9518029 22.4318114,49.6863171 22.4318114,49.4294886 C22.4318114,33.2637171 35.5848971,20.1106314 51.7506686,20.1106314 C67.9193257,20.1106314 81.0695257,33.2637171 81.0695257,49.4294886 C81.0695257,49.6863171 81.06664,49.9518029 81.0579829,50.2317171 L98.53964,50.2317171 C98.5425257,49.9633457 98.5482971,49.69786 98.5482971,49.4294886 C98.5482971,23.6254314 77.5547257,2.63474571 51.7506686,2.63474571 L51.7506686,2.63474571 Z" id="Fill-38" fill="#231F20"></path>
                    <path d="M39.0134143,55.6877371 C38.6209571,55.6877371 38.3699,55.7165943 38.2429286,55.7454514 L38.2429286,61.3841371 C38.3699,61.4129943 38.6065286,61.4129943 38.7739,61.4129943 C40.4129857,61.4274229 41.6307571,60.5299657 41.6307571,58.4031943 C41.6307571,56.5563371 40.5399571,55.6877371 39.0134143,55.6877371" id="Fill-40" fill="#231F20"></path>
                    <path d="M76.8941857,55.6329086 C76.4180429,55.6329086 76.1669857,55.6473371 76.0400143,55.6877371 L76.0400143,57.90108 L76.6979571,57.90108 C77.6502429,57.90108 78.1956429,57.43648 78.1956429,56.7381371 C78.1956429,56.0397943 77.7339286,55.6329086 76.8941857,55.6329086" id="Fill-42" fill="#231F20"></path>
                    <path d="M96.2192371,63.26014 L89.8937514,63.26014 L89.8937514,53.82674 L96.0230086,53.82674 L96.0230086,55.8986829 L92.4274086,55.8986829 L92.4274086,57.4107971 L95.8123514,57.4107971 L95.8123514,59.4538829 L92.4274086,59.4538829 L92.4274086,61.1881971 L96.2192371,61.1881971 L96.2192371,63.26014 Z M88.49418,63.26014 L82.1686943,63.26014 L82.1686943,53.82674 L88.2979514,53.82674 L88.2979514,55.8986829 L84.7023514,55.8986829 L84.7023514,57.4107971 L88.09018,57.4107971 L88.09018,59.4538829 L84.7023514,59.4538829 L84.7023514,61.1881971 L88.49418,61.1881971 L88.49418,63.26014 Z M78.4894086,63.26014 C78.3508943,62.9802257 78.0969514,62.2530257 77.8314657,61.0756543 C77.5804086,59.9559971 77.2283514,59.7193686 76.4463229,59.7193686 L76.0394371,59.7193686 L76.0394371,63.26014 L73.5346371,63.26014 L73.5346371,53.9537114 C74.2502943,53.8411686 75.3266657,53.7574829 76.5848371,53.7574829 C78.0276943,53.7574829 79.0636657,53.9537114 79.7764371,54.4846829 C80.3795514,54.9608257 80.6998657,55.6331971 80.6998657,56.5421971 C80.6998657,57.7195686 79.8197229,58.5448829 79.0896371,58.8219114 L79.0896371,58.8651971 C79.70718,59.1451114 80.0563514,59.7482257 80.29298,60.5591114 C80.57578,61.52294 80.8845514,62.89654 81.0663514,63.26014 L78.4894086,63.26014 Z M71.9676943,55.8986829 L68.4413514,55.8986829 L68.4413514,57.6329971 L71.7570371,57.6329971 L71.7570371,59.6760829 L68.4413514,59.6760829 L68.4413514,63.26014 L65.9076943,63.26014 L65.9076943,53.82674 L71.9676943,53.82674 L71.9676943,55.8986829 Z M61.7407229,63.26014 L55.4123514,63.26014 L55.4123514,53.82674 L61.5444943,53.82674 L61.5444943,55.8986829 L57.9460086,55.8986829 L57.9460086,57.4107971 L61.3338371,57.4107971 L61.3338371,59.4538829 L57.9460086,59.4538829 L57.9460086,61.1881971 L61.7407229,61.1881971 L61.7407229,63.26014 Z M53.6924657,59.0325686 C53.6924657,61.9442543 52.2380657,63.4130829 49.5918657,63.4130829 C47.0178086,63.4130829 45.6470943,61.9990829 45.6470943,58.97774 L45.6470943,53.82674 L48.1807514,53.82674 L48.1807514,59.1883971 C48.1807514,60.61394 48.6684371,61.4132829 49.6640086,61.4132829 C50.6711229,61.4132829 51.1616943,60.6831971 51.1616943,59.1883971 L51.1616943,53.82674 L53.6924657,53.82674 L53.6924657,59.0325686 Z M42.6661514,62.20974 C41.63018,63.0090829 40.0776657,63.3726829 38.2308086,63.3726829 C37.0274657,63.3726829 36.2021514,63.2889971 35.7260086,63.2168543 L35.7260086,53.96814 C36.5224657,53.82674 37.6017229,53.7574829 38.7184943,53.7574829 C40.53938,53.7574829 41.6734657,54.0518257 42.6113229,54.69534 C43.6472943,55.4081114 44.3196657,56.5854829 44.3196657,58.3197971 C44.3196657,60.25034 43.58958,61.4969686 42.6661514,62.20974 L42.6661514,62.20974 Z M31.4580371,63.26014 L33.9916943,63.26014 L33.9916943,53.82674 L31.4580371,53.82674 L31.4580371,63.26014 Z M26.0704086,63.3986543 C24.9363229,63.3986543 23.8310943,63.1071971 23.2972371,62.8272829 L23.7762657,60.7409114 C24.3476371,61.0352543 25.2710657,61.3295971 26.2233514,61.3295971 C27.0919514,61.3295971 27.51038,61.0352543 27.51038,60.5591114 C27.51038,60.0973971 27.0919514,59.8319114 26.0271229,59.4683114 C24.4313229,58.9084829 23.36938,58.0254543 23.36938,56.6258829 C23.36938,54.9608257 24.78338,53.6737971 27.1612086,53.6737971 C28.2808657,53.6737971 29.0917514,53.8815686 29.7092943,54.1643686 L29.1783229,56.1785971 C28.7714371,55.9967971 28.0702086,55.7313114 27.1323514,55.7313114 C26.3618657,55.7313114 25.9434371,56.0112257 25.9434371,56.4296543 C25.9434371,56.9057971 26.4484371,57.1020257 27.6373514,57.5348829 C29.3312657,58.1639686 30.0873229,59.0758543 30.0873229,60.39174 C30.0873229,62.0135114 28.8262657,63.3986543 26.0704086,63.3986543 L26.0704086,63.3986543 Z M22.2093229,63.26014 L15.8809514,63.26014 L15.8809514,53.82674 L22.0130943,53.82674 L22.0130943,55.8986829 L18.4146086,55.8986829 L18.4146086,57.4107971 L21.8024371,57.4107971 L21.8024371,59.4538829 L18.4146086,59.4538829 L18.4146086,61.1881971 L22.2093229,61.1881971 L22.2093229,63.26014 Z M12.2016657,63.26014 C12.0631514,62.9802257 11.8120943,62.2530257 11.5437229,61.0756543 C11.2926657,59.9559971 10.9434943,59.7193686 10.15858,59.7193686 L9.75458,59.7193686 L9.75458,63.26014 L7.24689429,63.26014 L7.24689429,53.9537114 C7.96255143,53.8411686 9.03892286,53.7574829 10.29998,53.7574829 C11.7399514,53.7574829 12.7759229,53.9537114 13.49158,54.4846829 C14.0918086,54.9608257 14.4121229,55.6331971 14.4121229,56.5421971 C14.4121229,57.7195686 13.53198,58.5448829 12.80478,58.8219114 L12.80478,58.8651971 C13.4194371,59.1451114 13.7686086,59.7482257 14.0081229,60.5591114 C14.2880371,61.52294 14.5939229,62.89654 14.7786086,63.26014 L12.2016657,63.26014 Z M101.303866,51.2065114 L101.303866,51.2065114 C101.13938,51.1170543 100.951809,51.0679971 100.764237,51.0679971 L98.5220371,51.0679971 L81.0259514,51.0679971 L81.0259514,51.0679971 L22.4776943,51.0679971 L22.4776943,51.0679971 L4.98160857,51.0679971 L4.98160857,51.0679971 L2.88080857,51.0679971 C2.69323714,51.0679971 2.50855143,51.1170543 2.34406571,51.2065114 C2.27769429,51.24114 2.21709429,51.2844257 2.16226571,51.3305971 C2.10455143,51.3767686 2.05260857,51.4258257 2.00932286,51.48354 C1.83906571,51.68554 1.74672286,51.9423686 1.74672286,52.2020829 L1.74672286,64.8011114 C1.74672286,65.0608257 1.83906571,65.3147686 2.00643714,65.5196543 C2.05260857,65.5744829 2.10455143,65.6264257 2.16226571,65.6725971 C2.21709429,65.7216543 2.27769429,65.7620543 2.34406571,65.7966829 C2.50855143,65.88614 2.69323714,65.9351971 2.88080857,65.9351971 L7.95100857,65.9351971 L7.95389429,65.9351971 L27.5046086,65.9351971 L27.5046086,65.9351971 L75.9990371,65.9351971 L75.9990371,65.9351971 L100.764237,65.9351971 C100.951809,65.9351971 101.13938,65.88614 101.303866,65.7966829 C101.670351,65.5975686 101.898323,65.2137686 101.898323,64.8011114 L101.898323,52.2020829 C101.898323,51.7894257 101.670351,51.4085114 101.303866,51.2065114 L101.303866,51.2065114 Z" id="Fill-44" fill="#231F20"></path>
                    <path d="M10.6073086,55.6329086 C10.1311657,55.6329086 9.88010857,55.6473371 9.75313714,55.6877371 L9.75313714,57.90108 L10.41108,57.90108 C11.3633657,57.90108 11.9087657,57.43648 11.9087657,56.7381371 C11.9087657,56.0397943 11.4470514,55.6329086 10.6073086,55.6329086" id="Fill-46" fill="#231F20"></path>
                    <path d="M66.5855486,38.2762029 L66.1902057,38.2762029 L66.1902057,37.2431171 C66.2796629,37.2200314 66.4326057,37.1998314 66.65192,37.1998314 C67.1800057,37.1998314 67.4224057,37.4191457 67.4224057,37.7481171 C67.4224057,38.12326 67.0501486,38.2762029 66.5855486,38.2762029 M67.5753486,38.5416886 L67.5753486,38.4984029 C68.0168629,38.36566 68.3256343,38.0568886 68.3256343,37.6615457 C68.3256343,37.3094886 68.1698057,37.0238029 67.9706914,36.8679743 C67.7080914,36.7150314 67.39932,36.6024886 66.7182914,36.6024886 C66.1238343,36.6024886 65.66212,36.64866 65.3331486,36.7150314 L65.3331486,40.3221743 L66.16712,40.3221743 L66.16712,38.87066 L66.5653486,38.87066 C67.0270629,38.87066 67.2463771,39.0466886 67.3098629,39.4420314 C67.4224057,39.86046 67.4858914,40.1923171 67.5984343,40.3221743 L68.4987771,40.3221743 C68.4122057,40.1923171 68.3458343,39.9701171 68.2361771,39.4189457 C68.12652,38.9370314 67.9274057,38.6744314 67.5753486,38.5416886" id="Fill-48" fill="#231F20"></path>
                    <path d="M66.7506114,41.5312886 C64.9960971,41.5312886 63.7177257,40.1576886 63.7177257,38.4291457 C63.7177257,36.7236886 64.9960971,35.3241171 66.7275257,35.3241171 C68.4560686,35.3241171 69.7113543,36.7236886 69.7113543,38.4522314 C69.7113543,40.1576886 68.4560686,41.5312886 66.7506114,41.5312886 M66.7275257,34.5449743 C64.4997543,34.5449743 62.7221543,36.2735171 62.7221543,38.4291457 C62.7221543,40.6309457 64.4997543,42.3623743 66.7275257,42.3623743 C68.9754971,42.3623743 70.7069257,40.6309457 70.7069257,38.4291457 C70.7069257,36.2735171 68.9754971,34.5449743 66.7275257,34.5449743" id="Fill-50" fill="#231F20"></path>
                </g>
            </g>
        </g>
    </g>
</svg>