<svg xmlns:xlink="http://www.w3.org/1999/xlink" viewBox="0 0 137 103"><defs><path id="a" d="M0 94.06h126.755V.774H0z"/></defs><g fill="none" fillRule="evenodd"><path fill="#FFF" d="M0 0h137v102.5H0z"/><path fill="#FEFEFE" d="M5.817 96.659h125.121V5.009H5.818z"/><path stroke="#231F20" d="M5.817 96.659h125.121V5.005H5.818z"/><path fill="#FEFEFE" d="M8.463 62.13h59.796V7.689H8.463z"/><g transform="translate(5 3.415)"><path d="M43.771 15.322c-.52-2.79-7.06-3.03-11.59 7.593-2.425-5.4-6.052-10.99-11.131-14.024-2.875-1.717-9.31.282-2.614 15.5 0 0-3.1 5.355.43 8.726 5.17 4.944 9.885 2.916 15.731 3.645-1.096 1.737 1.432 4.292 1.676 1.414.044-.444-.039-1.093-.156-1.743 1.458-1.896 9.259-12.522 7.654-21.11" fill="#231F20"/><path d="M37.364 58.715c3.19-18.756 12.678-36.728 24.28-51.777-5.85 2.7-13.304 10.72-19.82 19.852-2.029 4.706-4.886 8.574-5.706 9.641.114.653.2 1.303.156 1.743-.174 2.029-1.476 1.364-1.85.18-2.36 4.15-4.332 8.183-5.687 11.713-3.219-8.4-10.793-15.317-20.702-19.076 7.974 9.647 12.886 18.477 14.938 27.724H3.464V76.81h119.807V58.715H37.364z" fill="#231F20"/><path d="M41.073 19.372c-.244-2.854-5.115-2.657-8.066 5.209 0 0-.026.035-.073.109 1.643 4.053 2.598 7.824 2.971 10.088 1.073-1.687 5.685-9.327 5.168-15.406M34.591 35.86c1.247.538-3.13-15.361-11.657-20.55-2.155-1.31-5.864-.184-1.255 10.18 0 0-3.44 5.555 1.846 8.024 3.31 1.544 7.616.841 11.066 2.346M15.718 70.455l-3.142-8.704h-2.47l4.633 12.016h1.881l4.733-12.016h-2.37zM29.534 68.667h5.4v-2.075h-5.4v-2.76h5.802v-2.08h-7.983v12.015h8.268v-2.08h-6.087zM44.77 66.765v-3.03h1.708c1.49 0 2.128.452 2.128 1.516 0 1.067-.638 1.514-2.128 1.514H44.77zm6.108-1.514c0-.817-.291-3.5-3.965-3.5h-4.318v12.016h2.175v-5.015h1.22l2.89 5.015h2.686l-3.286-5.28c1.528-.373 2.598-1.672 2.598-3.236z" fill="#FEFEFE"/><mask id="b" fill="#fff"><use xlink:href="#a"/></mask><path fill="#FEFEFE" mask="url(#b)" d="M57.83 73.767h2.175V61.751H57.83zM67.702 73.768h2.179v-4.92h5.223v-2.082H69.88v-2.933h5.605v-2.081h-7.784zM82.312 73.767h2.178V61.751h-2.178zM94.338 68.667h5.405v-2.075h-5.405v-2.76h5.808v-2.08h-7.98v12.015h8.268v-2.08h-6.096zM110.918 71.686h-1.625v-7.854h1.995c3.942 0 4.14 3.268 4.14 3.93 0 2.895-2.429 3.924-4.51 3.924m.482-9.935h-4.288v12.016h4.035c4.3 0 6.558-3.022 6.558-6.005 0-2.775-1.655-6.011-6.305-6.011"/><path d="M6.644 81.457c-.844 0-1.587.365-1.934.955v-.805H3.463v6.076H4.71v-3.128c0-1.228.585-1.934 1.61-1.934.386 0 1.3.141 1.3 1.484v3.578h1.246v-3.898c0-1.717-1.152-2.328-2.222-2.328M14.061 86.664c-1.143 0-1.913-.811-1.913-2.02 0-1.21.77-2.024 1.913-2.024 1.141 0 1.908.814 1.908 2.025 0 1.208-.767 2.02-1.908 2.02m0-5.206c-1.813 0-3.23 1.396-3.23 3.186 0 1.787 1.417 3.19 3.23 3.19 1.808 0 3.225-1.403 3.225-3.19 0-1.79-1.417-3.186-3.225-3.186M22.429 81.457c-.844 0-1.581.365-1.934.955v-.805h-1.238v6.076h1.238v-3.128c0-1.228.588-1.934 1.61-1.934.395 0 1.306.141 1.306 1.484v3.578h1.24v-3.898c0-1.717-1.143-2.328-2.222-2.328M30.024 86.59c-1.164 0-1.91-.76-1.91-1.945 0-1.211.767-2.026 1.91-2.026 1.144 0 1.91.815 1.91 2.026 0 1.184-.752 1.945-1.91 1.945zm1.91-4.203c-.452-.573-1.237-.929-2.048-.929-1.82 0-3.092 1.308-3.092 3.187-.006.86.308 1.646.876 2.225.573.576 1.355.884 2.216.884.867 0 1.623-.355 2.049-.978v.755c0 .75-.274 2.008-2.099 2.008-.82 0-1.481-.303-2.09-.953l-.041-.04-.84 1.043.038.032c.793.74 1.734 1.082 2.957 1.082 1.948 0 3.312-1.282 3.312-3.122v-5.976h-1.237v.782zM42.477 81.457c-.773 0-1.508.406-1.89 1.05-.394-.709-1.009-1.05-1.864-1.05-.935 0-1.631.544-1.887.955v-.805h-1.164v6.076h1.237v-3.148c0-1.414.812-1.914 1.497-1.914 1.01 0 1.205.694 1.205 1.884v3.178h1.243v-3.319c0-.794.253-1.743 1.47-1.743 1.084 0 1.228.852 1.228 1.681v3.38h1.244v-3.53c0-1.79-.782-2.695-2.32-2.695M49.989 86.664c-1.141 0-1.908-.811-1.908-2.02 0-1.21.767-2.024 1.908-2.024 1.149 0 1.91.814 1.91 2.025 0 1.208-.761 2.02-1.91 2.02m0-5.206c-1.808 0-3.228 1.396-3.228 3.186 0 1.787 1.42 3.19 3.228 3.19 1.81 0 3.233-1.403 3.233-3.19 0-1.79-1.423-3.186-3.233-3.186M58.566 82.62c1.137 0 1.907.815 1.907 2.026 0 1.208-.77 2.02-1.907 2.02-1.147 0-1.908-.812-1.908-2.02 0-1.211.761-2.026 1.908-2.026m.135-1.164c-.808 0-1.602.36-2.043.932v-.782h-1.246v9.627h1.246v-4.324c.426.567 1.217.926 2.043.926 1.822 0 3.092-1.311 3.092-3.19 0-1.878-1.27-3.189-3.092-3.189M66.75 81.457c-.709 0-1.42.394-1.761.955v-.805h-1.24v6.076h1.24v-3.046c0-1.255.544-1.863 1.66-1.863.148 0 .321.03.538.085l.065.018.053-1.332-.035-.014a1.839 1.839 0 00-.52-.074M71.469 86.664c-1.147 0-1.91-.811-1.91-2.02 0-1.21.763-2.024 1.91-2.024 1.143 0 1.907.814 1.907 2.025 0 1.208-.764 2.02-1.907 2.02m0-5.206c-1.808 0-3.225 1.396-3.225 3.186 0 1.787 1.417 3.19 3.225 3.19 1.813 0 3.233-1.403 3.233-3.19 0-1.79-1.42-3.186-3.233-3.186M77.373 78.633a.902.902 0 00-.888.887c0 .482.409.885.888.885a.896.896 0 00.888-.885.9.9 0 00-.888-.887M76.756 88.436c0 .773-.235 1.102-.779 1.102-.12 0-.267-.029-.45-.097l-.061-.02-.141 1.155.04.015c.218.079.45.111.75.111 1.882 0 1.882-1.61 1.882-2.216v-6.878h-1.24v6.828zM83.278 82.468c1.002 0 1.625.612 1.666 1.632h-3.46c.027-.785.756-1.632 1.794-1.632m.026-1.01c-1.793 0-3.14 1.372-3.14 3.188 0 1.879 1.285 3.187 3.125 3.187 1.164 0 2.043-.406 2.687-1.244l.038-.038-.946-.72-.033.041c-.49.603-.981.87-1.593.87-.946 0-1.928-.602-1.957-1.628h4.782v-.456c0-1.478-.776-3.2-2.963-3.2M90.756 82.632c.584 0 1.017.197 1.446.65l.035.04.94-.855-.035-.038c-.573-.62-1.402-.961-2.33-.961-1.873 0-3.181 1.32-3.181 3.2 0 1.865 1.308 3.167 3.18 3.167.97 0 1.74-.315 2.305-.938l.032-.038-.882-.888-.038.047c-.388.45-.817.647-1.408.647-1.09 0-1.872-.823-1.872-1.973 0-1.022.558-2.06 1.808-2.06M97.125 86.664c-.8 0-.8-.635-.8-1.31v-2.655h1.623v-1.093h-1.622v-1.67h-1.24v1.67h-1.312v1.093h1.311v3.054c0 .929 0 2.081 1.829 2.081.173 0 .75-.038 1.046-.206l.026-.017V86.45l-.079.047c-.23.14-.55.167-.782.167M100.877 85.988a.899.899 0 00-.885.881c0 .485.406.888.885.888a.895.895 0 00.888-.888.897.897 0 00-.888-.881M106.96 86.664c-1.14 0-1.908-.811-1.908-2.02 0-1.21.767-2.024 1.908-2.024 1.146 0 1.91.814 1.91 2.025 0 1.208-.764 2.02-1.91 2.02m0-5.206c-1.808 0-3.23 1.396-3.23 3.186 0 1.787 1.422 3.19 3.23 3.19 1.807 0 3.227-1.403 3.227-3.19 0-1.79-1.42-3.186-3.227-3.186M115.158 81.457c-.714 0-1.423.394-1.76.955v-.805h-1.241v6.076h1.24v-3.046c0-1.255.544-1.863 1.658-1.863.153 0 .32.03.538.085l.067.018.056-1.332-.038-.014a1.824 1.824 0 00-.52-.074M120.118 86.59c-1.161 0-1.91-.76-1.91-1.945 0-1.211.764-2.026 1.91-2.026 1.14 0 1.91.815 1.91 2.026 0 1.184-.749 1.945-1.91 1.945zm1.91-4.985v.782c-.446-.57-1.237-.929-2.048-.929-1.823 0-3.092 1.308-3.092 3.187-.003.86.308 1.646.876 2.225.573.576 1.355.884 2.216.884.873 0 1.628-.355 2.049-.981v.758c0 .75-.277 2.008-2.102 2.008-.814 0-1.476-.303-2.09-.953l-.041-.04-.838 1.043.038.032c.8.74 1.735 1.082 2.957 1.082 1.95 0 3.316-1.282 3.316-3.122v-5.976h-1.24zM63.259 58.714h60.01V4.274H63.26z" fill="#231F20" mask="url(#b)"/><path d="M103.965 9.342h4.14l5.89 9.618h.032V9.342h3.054v13.842h-3.992l-6.037-9.847h-.044v9.847h-3.043V9.342zm-10.19 11.376c2.604 0 4.303-1.876 4.303-4.456 0-2.581-1.7-4.454-4.303-4.454-2.605 0-4.3 1.873-4.3 4.454 0 2.58 1.695 4.456 4.3 4.456zm0-11.726c4.318 0 7.469 2.831 7.469 7.27 0 4.441-3.151 7.275-7.47 7.275-4.323 0-7.465-2.834-7.465-7.275 0-4.439 3.142-7.27 7.466-7.27zm-23.304.35h4.148l5.884 9.618h.036V9.342h3.05v13.842h-3.988l-6.044-9.847h-.038v9.847h-3.048V9.342zM117.867 47.02h-2.013v3.31c0 .823 0 1.684 1.064 1.684.323 0 .708-.044.996-.214v1.267c-.329.182-.984.244-1.264.244-2.166 0-2.198-1.308-2.198-2.481v-3.81h-1.62v-1.205h1.62v-2.052h1.402v2.052h2.013v1.205zm-7.216.741c-.514-.544-1.058-.817-1.84-.817-1.52 0-2.304 1.217-2.304 2.587 0 1.372.934 2.483 2.38 2.483.785 0 1.326-.279 1.796-.817l1 .99c-.735.803-1.731 1.124-2.81 1.124-2.272 0-3.863-1.558-3.863-3.816 0-2.248 1.558-3.85 3.863-3.85 1.079 0 2.101.367 2.84 1.155l-1.062.961zm-8.442 1.105c-.032-1.217-.717-2.125-2.134-2.125-1.384 0-2.293 1.155-2.293 2.125h4.427zm-4.427 1.114c0 1.282 1.2 2.125 2.499 2.125.852 0 1.476-.426 2.02-1.087l1.06.796c-.779 1.006-1.854 1.497-3.274 1.497-2.334 0-3.798-1.667-3.798-3.842 0-2.193 1.605-3.839 3.816-3.839 2.604 0 3.6 1.975 3.6 3.854v.496h-5.923zm-4.141-7.81c.561 0 1.026.468 1.026 1.02 0 .556-.465 1.017-1.026 1.017a1.029 1.029 0 01-1.026-1.017c0-.552.464-1.02 1.026-1.02zm.696 3.645v8.357c0 .758-.008 2.66-2.251 2.66-.315 0-.609-.035-.905-.141l.158-1.285c.165.065.382.127.573.127.765 0 1.03-.494 1.03-1.417v-8.3h1.395zm-7.133 6.2c1.499 0 2.433-1.065 2.433-2.546 0-1.482-.934-2.537-2.433-2.537-1.49 0-2.425 1.055-2.425 2.537 0 1.481.934 2.545 2.425 2.545zm0-6.385c2.198 0 3.927 1.714 3.927 3.839 0 2.134-1.729 3.842-3.927 3.842-2.196 0-3.922-1.708-3.922-3.842 0-2.125 1.726-3.839 3.922-3.839zm-8.719.185h1.4v1.129h.035c.358-.773 1.29-1.314 2.21-1.314.218 0 .438.026.626.094l-.064 1.493a2.944 2.944 0 00-.688-.106c-1.37 0-2.12.738-2.12 2.346v3.671h-1.399v-7.313zm-7.322 1.205h1.96c1.191 0 2.37-.279 2.37-1.757 0-1.485-1.179-1.761-2.37-1.761h-1.96v3.518zm-1.496-4.817h3.88c2.822 0 3.536 1.687 3.536 3.06 0 1.37-.714 3.048-3.536 3.048h-2.384v4.817h-1.496V42.203zM115.6 33.048c0-2.581-1.693-4.46-4.3-4.46-2.6 0-4.301 1.879-4.301 4.46 0 2.577 1.702 4.456 4.3 4.456 2.608 0 4.3-1.879 4.3-4.456zm3.165 0c0 4.435-3.142 7.269-7.466 7.269-4.318 0-7.466-2.834-7.466-7.27 0-4.435 3.148-7.277 7.466-7.277 4.324 0 7.466 2.842 7.466 7.278zm-25.055 2.11h-.041l-3.192-9.033h-4.61v13.839h3.052V29.353h.038l3.5 10.611h2.323l3.639-10.611h.041v10.611h3.045V26.125h-4.594l-3.201 9.033zM76.91 31.754h5.415v7.237c-1.8.938-3.775 1.326-5.806 1.326-4.32 0-7.469-2.834-7.469-7.27 0-4.435 3.148-7.277 7.47-7.277 2.19 0 4.12.49 5.51 1.784l-2.145 2.343c-.823-.862-1.82-1.308-3.366-1.308-2.604 0-4.3 1.878-4.3 4.459 0 2.577 1.696 4.456 4.3 4.456 1.326 0 2.305-.37 2.878-.682v-2.249h-2.487v-2.819z" fill="#FEFEFE" mask="url(#b)"/></g></g></svg>