<svg xmlns:xlink="http://www.w3.org/1999/xlink" viewBox="0 0 111 111"><defs><path id="a" d="M0 .127h19.056v18.877H0z"/></defs><g fill="none" fill-rule="evenodd"><circle fill="#FFF" cx="55.5" cy="55.5" r="55.5"/><path fill="#151413" d="M60.163 15.001l-4.445 6.147h-.076V15h-4.88v18.334h4.88v-5.342l1.036-1.267 3.923 6.61h6.016l-6.715-10.483L66.356 15zM81.938 46.195v18.338h12.73v-4.37h-7.977v-2.656h5.805v-4.18h-5.805v-2.762h7.435v-4.37zM49.858 76.904v4.366h4.571v13.968h5.035V81.27h4.572v-4.366z"/><g transform="translate(15.5 45.786)"><mask id="b" fill="#fff"><use xlink:href="#a"/></mask><path d="M5.164 9.578c0-2.711 1.81-4.854 4.365-4.854 2.581 0 4.366 2.168 4.366 4.854 0 2.715-1.785 4.854-4.366 4.854-2.555 0-4.365-2.139-4.365-4.854m13.892 0c0-5.629-3.948-9.451-9.527-9.451C3.901.127 0 4 0 9.578s3.902 9.426 9.53 9.426c5.579 0 9.527-3.823 9.527-9.426" fill="#151413" mask="url(#b)"/></g><path fill="#151413" d="M89.676 28.842l-5.094-5.098L57.05 51.277 29.52 23.744l-5.094 5.098L51.96 56.371 24.427 83.899l5.094 5.098L57.05 61.465l27.532 27.532 5.094-5.098-27.528-27.528z"/></g></svg>