<?xml version="1.0" encoding="UTF-8"?>
<svg width="111px" height="111px" viewBox="0 0 111 111" version="1.1" xmlns="http://www.w3.org/2000/svg" xmlns:xlink="http://www.w3.org/1999/xlink">
    <title>Group 23</title>
    <defs>
        <polygon id="pathx-1" points="0 0.447585661 99.4652647 0.447585661 99.4652647 99.9117647 0 99.9117647"></polygon>
    </defs>
    <g id="THIS-ONE" stroke="none" stroke-width="1" fill="none" fillRule="evenodd">
        <g id="Oat-Canada---V1-2b-Copy" transform="translate(-2037.000000, -1763.000000)">
            <g id="Group-23" transform="translate(2037.000000, 1763.000000)">
                <circle id="Oval" fill="#FFFFFF" cx="55.5" cy="55.5" r="55.5"></circle>
                <g id="Group-6" transform="translate(5.500000, 5.000000)">
                    <g id="Group-3" transform="translate(0.000000, 0.641735)">
                        <mask id="maskz-2" fill="white">
                            <use xlink:href="#pathx-1"></use>
                        </mask>
                        <g id="Clip-2"></g>
                        <path d="M50.6155588,9.27483824 C46.2858529,9.28719118 42.8733529,9.69792647 39.5287941,10.5935147 C31.3048235,12.7954265 24.4211471,17.1436618 18.921,23.6382206 C13.0471765,30.5713088 9.87247059,38.61925 9.27644118,47.6739559 C9.03247059,51.3798382 9.30423529,55.0671912 10.0886471,58.7020441 C12.0990882,67.9821912 16.7314412,75.7058676 24.0196765,81.7680735 C30.8477647,87.4504265 38.7505588,90.5201324 47.6385,91.0111618 C51.8107059,91.2427794 55.9211471,90.8289559 59.9543824,89.75425 C68.1690882,87.5646912 75.0373235,83.2133676 80.5312941,76.73425 C86.4174706,69.7918971 89.5952647,61.7316029 90.1882059,52.6614559 C90.4321765,48.9710147 90.1635,45.2991029 89.3790882,41.6735147 C87.3408529,32.2760147 82.6312941,24.4813088 75.1979118,18.3913088 C67.8139412,12.3414559 59.2811471,9.37675 50.6155588,9.27483824 M99.4652647,50.1939559 C99.4529118,77.7286618 77.1311471,100.019544 49.5285,99.9118473 C22.0740882,99.8033676 -0.139588235,77.4970441 -0.00126616662,49.9129265 C0.141441176,22.4739559 22.4601176,0.269544118 50.0627647,0.448661765 C77.4029118,0.621602941 99.4652647,22.7920441 99.4652647,50.1939559" id="Fill-1" fill="#231F20" mask="url(#maskz-2)"></path>
                    </g>
                    <path d="M26.59125,25.8385882 L37.7830147,25.8385882 C37.7830147,26.0238824 37.7799265,48.4784412 37.7830147,59.5281471 C37.7830147,61.8937353 38.0486029,64.2191765 38.9534559,66.4365294 C40.3802206,69.9416765 43.0175735,71.9335882 46.6925735,72.6037353 C49.2094853,73.0638824 51.7171324,72.9805 54.1753676,72.2455 C57.8534559,71.1491765 60.1480147,68.6507941 61.34625,65.0715294 C61.9268382,63.3297647 62.1738971,61.5262353 62.1769853,59.698 C62.1924265,48.6050588 62.1893382,26.0578529 62.1893382,25.8540294 L73.3780147,25.8540294 C73.3780147,25.9868235 73.3811029,48.7224118 73.3749265,59.9388824 C73.3749265,63.0549118 72.9858088,66.1122647 71.8524265,69.0368235 C69.7740441,74.4041765 65.9847794,78.0482941 60.6328676,80.0927059 C58.3877206,80.9512353 56.0561029,81.4453529 53.6688971,81.7140294 C51.3897794,81.9703529 49.1106618,82.0352059 46.8253676,81.8684412 C43.0083088,81.5874118 39.3209559,80.8246176 35.9393382,78.9284412 C32.2303676,76.8500588 29.68875,73.7710882 28.1538971,69.8335882 C27.3756618,67.8385882 26.9124265,65.7663824 26.7641912,63.6355 C26.6591912,62.1562353 26.6005147,60.6677059 26.5974265,59.1853529 C26.5850735,48.2591765 26.59125,26.0516765 26.59125,25.8385882" id="Fill-4" fill="#231F20"></path>
                </g>
            </g>
        </g>
    </g>
</svg>