<?xml version="1.0" encoding="UTF-8"?>
<svg width="111px" height="111px" viewBox="0 0 111 111" version="1.1" xmlns="http://www.w3.org/2000/svg" xmlns:xlink="http://www.w3.org/1999/xlink">
    <title>Group 21</title>
    <g id="THIS-ONE" stroke="none" stroke-width="1" fill="none" fill-rule="evenodd">
        <g id="Oat-Canada---V1-2b-Copy" transform="translate(-1646.000000, -1763.000000)">
            <g id="Group-21" transform="translate(1646.000000, 1763.000000)">
                <circle id="Oval" fill="#FFFFFF" cx="55.5" cy="55.5" r="55.5"></circle>
                <g id="Group-51" transform="translate(5.000000, 5.000000)">
                    <path d="M50.292271,92.6094674 C26.9179853,92.6094674 7.97411975,73.6624191 7.97411975,50.2913162 C7.97411975,26.9202132 26.9179853,7.97316492 50.292271,7.97316492 C73.6601912,7.97316492 92.6104223,26.9202132 92.6104223,50.2913162 C92.6104223,73.6624191 73.6601912,92.6094674 50.292271,92.6094674 M50.292271,0.000318277311 C22.5162101,0.000318277311 0.00127310924,22.518438 0.00127310924,50.2913162 C0.00127310924,78.0673771 22.5162101,100.579131 50.292271,100.579131 C78.0683319,100.579131 100.580086,78.0673771 100.580086,50.2913162 C100.580086,22.518438 78.0683319,0.000318277311 50.292271,0.000318277311" id="Fill-1" fill="#060807"></path>
                    <path d="M49.7203267,74.1143729 L31.9031628,39.1452447 L40.6048645,39.1452447 L49.7203267,58.8657069 L58.8357889,39.1452447 L67.5374905,39.1452447 L67.7029947,39.1452447 L67.5374905,39.1452447 L49.7203267,74.1143729 Z M61.9230788,29.0781334 C56.6810515,29.0781334 52.1233204,32.0094674 49.8030788,36.322125 C47.4796544,32.0094674 42.9251061,29.0781334 37.6830788,29.0781334 C30.0857994,29.0781334 23.9271334,35.2367994 23.9271334,42.8340788 C23.9271334,46.0327658 25.0220074,48.9736481 26.8552847,51.3098036 L26.8489191,51.3098036 L26.9603162,51.44348 C27.0303372,51.5294149 27.103541,51.6185326 27.1767447,51.7044674 L49.7839821,79.1686166 L71.9201691,52.2773666 C74.2467763,49.8139002 75.6790242,46.4910851 75.6790242,42.8340788 C75.6790242,35.2367994 69.5203582,29.0781334 61.9230788,29.0781334 L61.9230788,29.0781334 Z" id="Fill-3" fill="#231F20"></path>
                    <polygon id="Fill-5" fill="#231F20" points="22.5426271 76.5090914 25.5726271 69.9939548 26.626125 71.0347216 24.3281628 75.8025158 29.0259359 73.3995221 30.0571544 74.4180095 23.5802111 77.5339443"></polygon>
                    <polygon id="Fill-7" fill="#231F20" points="27.4409149 80.8729916 31.1647595 75.2235693 35.3532889 77.9862164 34.7262826 78.9410483 31.6771859 76.9327185 30.8496649 78.1835483 33.6855158 80.0550189 33.0585095 81.0066681 30.2226586 79.1351975 29.2105368 80.6756597 32.3646649 82.7540105 31.7376586 83.7056597"></polygon>
                    <path d="M37.6932637,83.7575389 L38.1261208,82.704041 L40.8473918,83.8243771 L39.8193561,86.3164884 C39.4501544,86.462896 38.9759212,86.5297342 38.3934737,86.5170032 C37.8110263,86.5042721 37.2635893,86.392875 36.74798,86.182812 C36.0955116,85.9122763 35.5799023,85.5398918 35.2075179,85.0656586 C34.8351334,84.5914254 34.6314359,84.050354 34.5964254,83.4360788 C34.5645977,82.8281691 34.6696292,82.2234422 34.9178855,81.6218981 C35.1852384,80.9726124 35.5608057,80.4474548 36.0414044,80.0559737 C36.5220032,79.6613099 37.0821712,79.4385158 37.7187258,79.3844086 C38.2056901,79.3430326 38.7467616,79.4448813 39.3451229,79.6899548 C40.1185368,80.0114149 40.6596082,80.4219926 40.9619716,80.9280536 C41.2643351,81.4341145 41.3598183,81.9974653 41.2484212,82.6244716 L39.8957426,82.3412048 C39.9371187,81.9974653 39.8702805,81.6887363 39.6984107,81.4118351 C39.5297237,81.1317511 39.2623708,80.9185053 38.8995347,80.7689149 C38.3489149,80.542938 37.8364884,80.5365725 37.3686208,80.7530011 C36.8975704,80.9694296 36.5220032,81.4182006 36.2387363,82.1056796 C35.9331901,82.8472658 35.8695347,83.4742721 36.0445872,83.980333 C36.2228225,84.4863939 36.5761103,84.84923 37.1108162,85.0720242 C37.3749863,85.1802384 37.6646187,85.2375284 37.9701649,85.2407111 C38.2820767,85.2470767 38.5589779,85.2152489 38.8135998,85.1484107 L39.1382426,84.3527174 L37.6932637,83.7575389" id="Fill-9" fill="#231F20"></path>
                    <path d="M45.6938004,85.8088361 L45.2195672,83.1766828 L43.8796197,85.4810105 L45.6938004,85.8088361 Z M47.6925819,88.883395 L46.2316891,88.6224076 L45.9229601,87.0055588 L43.2653445,86.5281429 L42.4441891,87.9412941 L41.0183067,87.6834895 L44.8058067,81.4993613 L46.2253235,81.7539832 L47.6925819,88.883395 Z" id="Fill-11" fill="#231F20"></path>
                    <polygon id="Fill-13" fill="#231F20" points="49.8775557 88.9295452 49.4128708 82.1788834 50.7400872 82.086583 53.8114632 86.4056061 53.5027342 81.8956166 54.7694779 81.8096817 55.2341628 88.5603435 53.8655704 88.6558267 50.8419359 84.4386523 51.1442994 88.8404275"></polygon>
                    <polygon id="Fill-15" fill="#231F20" points="58.0286376 87.9473414 57.7230914 86.6869632 58.9834695 86.3845998 59.2890158 87.6417952"></polygon>
                    <path d="M61.6932826,83.3953393 C61.9892805,84.1019149 62.3775788,84.5665998 62.8581775,84.7925767 C63.3387763,85.0185536 63.8257405,85.0281019 64.3286187,84.8148561 C64.8283141,84.6047931 65.165688,84.2515053 65.334375,83.7549926 C65.503062,83.25848 65.4362237,82.6473876 65.1306775,81.9248981 C64.8314968,81.2119569 64.4495641,80.7440893 63.988062,80.5276607 C63.5265599,80.3080494 63.0364128,80.3048666 62.5208036,80.5244779 C62.0020116,80.7440893 61.6582721,81.0973771 61.4927679,81.5875242 C61.3240809,82.0744884 61.3909191,82.6792153 61.6932826,83.3953393 M60.4169905,83.9841523 C60.1464548,83.3507805 60.0191439,82.7778813 60.0255095,82.2686376 C60.0350578,81.8898876 60.1082616,81.5238687 60.2451208,81.1673981 C60.3851628,80.8109275 60.5729464,80.5117468 60.8148372,80.2666733 C61.1331145,79.9420305 61.546875,79.668312 62.0529359,79.4550662 C62.9695746,79.0699506 63.8257405,79.0444884 64.6150683,79.3818624 C65.4075788,79.7160536 66.0154884,80.3939842 66.4451628,81.4061061 C66.8684716,82.4118624 66.9257616,83.31577 66.6170326,84.114646 C66.3114863,84.9103393 65.7003939,85.5023351 64.786938,85.8906334 C63.8607511,86.2789317 63.0045851,86.3075767 62.2184401,85.9733855 C61.4322952,85.6391943 60.8339338,84.9771775 60.4169905,83.9841523" id="Fill-17" fill="#231F20"></path>
                    <path d="M68.8265137,79.2707836 L69.6572174,78.6947017 C70.1951061,78.3255 70.5165662,78.0708782 70.6184149,77.9308361 C70.7202637,77.7939769 70.771188,77.6412038 70.771188,77.4788824 C70.771188,77.3165609 70.7107153,77.1478739 70.5961355,76.9823697 C70.4688246,76.7945861 70.3128687,76.6800063 70.1346334,76.6322647 C69.9532153,76.5877059 69.7622489,76.6131681 69.5585515,76.7054685 C69.4598855,76.7563929 69.1829842,76.9409937 68.7278477,77.2529055 L67.8525851,77.8608151 L68.8265137,79.2707836 Z M69.9182048,83.2524328 L66.0797805,77.6921282 L68.4413981,76.0625483 C69.0365767,75.6519706 69.5012616,75.4037143 69.8418183,75.3177794 C70.1791922,75.2286618 70.5165662,75.2604895 70.8571229,75.4037143 C71.1944968,75.5469391 71.4777637,75.7824643 71.7037405,76.1102899 C71.9933729,76.530416 72.1079527,76.9569076 72.0506628,77.399313 C71.9933729,77.8417185 71.7451166,78.2650273 71.3058939,78.6724223 C71.6464506,78.6469601 71.9519968,78.6660567 72.2288981,78.7233466 C72.5026166,78.7838193 72.9227426,78.9397752 73.4892763,79.1848487 L74.9183414,79.8023067 L73.5752111,80.7284937 L71.9297174,80.079208 C71.3409044,79.8468655 70.9557889,79.7100063 70.771188,79.671813 C70.58977,79.630437 70.421083,79.6336197 70.2746754,79.671813 C70.1282679,79.7131891 69.9245704,79.8214034 69.6667658,79.9996387 L69.4376061,80.1587773 L71.0417237,82.4790189 L69.9182048,83.2524328 L69.9182048,83.2524328 Z" id="Fill-19" fill="#231F20"></path>
                    <path d="M76.7834464,74.4934412 L75.9591082,73.7072962 L77.9865347,71.578021 L79.9376428,73.4367605 C79.9407574,73.8346071 79.8325431,74.3024748 79.6097489,74.8403634 C79.3869548,75.3782521 79.0845914,75.8493025 78.7026586,76.2503319 C78.2125116,76.7627584 77.6809884,77.1064979 77.1049065,77.2815504 C76.5256418,77.4597857 75.9463771,77.4534202 75.3639296,77.2624538 C74.7846649,77.0746702 74.2595074,76.7563929 73.7884569,76.3076218 C73.2792132,75.8206576 72.9291082,75.2859517 72.734959,74.6907731 C72.5408099,74.1019601 72.5376271,73.500416 72.7158624,72.8861408 C72.8527216,72.4182731 73.142354,71.9504055 73.591125,71.4825378 C74.1672069,70.8746282 74.7464716,70.5213403 75.3257363,70.4226744 C75.9081838,70.3240084 76.4683519,70.441771 77.0126061,70.7727794 L76.2614716,71.9281261 C75.9559254,71.7689874 75.6408309,71.7148803 75.3225536,71.7753529 C75.0010935,71.8326429 74.7050956,72.0045126 74.4345599,72.2877794 C74.0207994,72.7206366 73.8330158,73.191687 73.8648435,73.7072962 C73.8934884,74.2260882 74.179938,74.7385147 74.7178267,75.2509412 C75.3002742,75.8047437 75.8572595,76.0911933 76.3919653,76.1102899 C76.929854,76.1293866 77.3977216,75.9288718 77.7955683,75.5087458 C77.9929002,75.3018655 78.1520389,75.056792 78.2666187,74.7703424 C78.3843813,74.4870756 78.4544023,74.2133571 78.4830473,73.9555525 L77.8624065,73.3635567 L76.7834464,74.4934412" id="Fill-21" fill="#231F20"></path>
                    <path d="M16.5625147,41.3276723 L17.3645735,40.1468634 C18.0297731,40.5638067 18.4721786,41.0603193 18.6854244,41.6268529 C18.8986702,42.1965693 18.8986702,42.8394895 18.6854244,43.5524307 C18.4212542,44.4372416 17.9024622,45.0706134 17.1290483,45.4589118 C16.3556345,45.8472101 15.4453613,45.8854034 14.398229,45.5734916 C13.2938067,45.2424832 12.5172101,44.7014118 12.0748046,43.9439118 C11.6355819,43.1895945 11.5528298,42.3461597 11.8329139,41.4167899 C12.0748046,40.602 12.5140273,40.013187 13.1442164,39.6471681 C13.5197836,39.4307395 13.9971996,39.325708 14.5732815,39.3352563 L14.4937122,40.7579559 C14.1245105,40.7324937 13.8030504,40.8152458 13.5293319,41.0062122 C13.2556134,41.1939958 13.0646471,41.4677143 12.9596155,41.8273676 C12.813208,42.3206975 12.8673151,42.7726513 13.1314853,43.183229 C13.3924727,43.5969895 13.920813,43.9216324 14.7133235,44.1603403 C15.5535756,44.4117794 16.1964958,44.4404244 16.6452668,44.2430924 C17.0940378,44.0457605 17.3868529,43.7083866 17.5332605,43.224605 C17.638292,42.8649517 17.6191954,42.524395 17.4664223,42.1997521 C17.3168319,41.8751092 17.0176513,41.5854769 16.5625147,41.3276723" id="Fill-23" fill="#231F20"></path>
                    <polygon id="Fill-25" fill="#231F20" points="20.0699307 39.1987153 13.9080819 36.0159422 16.2665168 31.4486628 17.3104664 31.9865515 15.5917689 35.3125494 16.9571786 36.0159422 18.5549307 32.9222868 19.5956975 33.4601754 17.9979454 36.5506481 19.672084 37.4195452 21.4512542 33.9757847 22.4888382 34.5136733"></polygon>
                    <path d="M21.1361597,29.4918939 L21.7790798,28.6802868 C22.1960231,28.1551292 22.4347311,27.8082069 22.4952038,27.63952 C22.5556765,27.4740158 22.5588592,27.3116943 22.5079349,27.1493729 C22.4601933,26.9902342 22.351979,26.8438267 22.1896576,26.7165158 C22.0050567,26.5701082 21.8204559,26.50327 21.6294895,26.5096355 C21.4385231,26.5191838 21.2602878,26.6019359 21.0884181,26.754709 C21.005666,26.8342784 20.7892374,27.0984485 20.4359496,27.5440368 L19.7548361,28.4002027 L21.1361597,29.4918939 Z M23.4054769,33.0756964 L17.9661176,28.7662216 L19.7962122,26.4555284 C20.2577143,25.8762637 20.6396471,25.4911481 20.9451933,25.3065473 C21.2539223,25.1187637 21.594479,25.0487426 21.9700462,25.0869359 C22.3456134,25.1251292 22.6925357,25.2747195 23.0139958,25.5293414 C23.4213908,25.8508015 23.6632815,26.2390998 23.7396681,26.6910536 C23.8160546,27.1398246 23.7014748,27.6331544 23.389563,28.1646775 C23.7173887,28.0341838 24.0261176,27.96098 24.3125672,27.9355179 C24.6021996,27.9132384 25.0605189,27.9387006 25.690708,28.0119044 L27.2789118,28.1869569 L26.238145,29.5014422 L24.4271471,29.3582174 C23.7810441,29.3041103 23.3609181,29.2881964 23.1667689,29.3009275 C22.9758025,29.3200242 22.8134811,29.3677658 22.6798046,29.4537006 C22.5461282,29.5364527 22.3806239,29.7051397 22.1801092,29.9565788 L22.0050567,30.1793729 L24.2743739,31.9808225 L23.4054769,33.0756964 L23.4054769,33.0756964 Z" id="Fill-27" fill="#231F20"></path>
                    <polygon id="Fill-29" fill="#231F20" points="28.9890158 26.7362489 25.1792363 22.4076775 23.6324086 23.7667216 22.8589947 22.8882763 26.9997826 19.2440011 27.7763792 20.1256292 26.2327342 21.4814905 30.0425137 25.810062"></polygon>
                    <polygon id="Fill-31" fill="#231F20" points="32.7481891 23.7508078 28.9511408 17.9454296 30.1224013 17.1783813 33.9194496 22.9837595"></polygon>
                    <polygon id="Fill-33" fill="#231F20" points="35.4694601 21.9948718 32.5763193 15.6897983 36.8985252 13.7069307 37.3886723 14.7699769 34.3395756 16.1703971 35.0238718 17.6631176 37.6560252 16.4568466 38.1461723 17.5230756 35.5140189 18.7293466 36.7425693 21.4092416"></polygon>
                    <polygon id="Fill-35" fill="#231F20" points="41.3391303 19.5890137 39.4517458 12.9147384 40.8012416 12.5359884 42.6854433 19.2070809"></polygon>
                    <polygon id="Fill-37" fill="#231F20" points="44.4522006 18.7108866 43.7010662 11.8138172 48.8157826 11.2600147 48.9430935 12.4249097 45.2224317 12.8291218 45.3879359 14.3568529 48.8476103 13.9812857 48.9749212 15.1429979 45.5120641 15.5217479 45.7157616 17.3964013 49.5700998 16.979458 49.6942279 18.1411702"></polygon>
                    <path d="M53.5218309,12.6111019 L52.9298351,17.1720158 L53.9674191,17.3056922 C54.3557174,17.3566166 54.6389842,17.3725305 54.8172195,17.3502511 C55.049562,17.3216061 55.2468939,17.2515851 55.4155809,17.1370053 C55.5810851,17.0224254 55.7306754,16.8155452 55.8643519,16.5195473 C55.9980284,16.2235494 56.0998771,15.8066061 56.1698981,15.275083 C56.2399191,14.7435599 56.2431019,14.3297994 56.185812,14.0338015 C56.1317048,13.7346208 56.0298561,13.4959128 55.8802658,13.3144947 C55.7306754,13.1330767 55.5301607,12.9962174 55.2787216,12.9070998 C55.090938,12.8370788 54.712188,12.7670578 54.1456544,12.6906712 L53.5218309,12.6111019 Z M52.2837321,11.2679716 L54.8235851,11.5957973 C55.3964842,11.6721838 55.8261586,11.7708498 56.115791,11.8981607 C56.5040893,12.0700305 56.8223666,12.3246523 57.0706229,12.6683918 C57.3188792,13.0089485 57.4907489,13.4067952 57.5830494,13.8682973 C57.6785326,14.3266166 57.6817153,14.8772363 57.5989632,15.5233393 C57.5257595,16.0898729 57.392083,16.5704716 57.1979338,16.9619527 C56.9592258,17.4393687 56.6600452,17.8149359 56.3035746,18.0822889 C56.0298561,18.2859863 55.6797511,18.4260284 55.2532595,18.5055977 C54.9349821,18.5628876 54.5180389,18.5565221 54.0024296,18.4896838 L51.3893729,18.1523099 L52.2837321,11.2679716 L52.2837321,11.2679716 Z" id="Fill-39" fill="#231F20"></path>
                    <polygon id="Fill-41" fill="#231F20" points="63.3795158 21.227187 64.2929716 13.9131744 65.648833 14.5974706 64.9040641 19.9731744 68.7329401 16.1570294 70.0601565 16.8254118 64.7130977 21.8987521"></polygon>
                    <polygon id="Fill-43" fill="#231F20" points="67.5941439 23.531833 71.8908876 18.0829254 75.9298267 21.2688813 75.2041544 22.1918855 72.2632721 19.8716439 71.3116229 21.0779149 74.045625 23.2358351 73.3231355 24.1556565 70.5859506 21.9977363 69.4178729 23.4809086 72.4637868 25.8807195 71.7381145 26.800541"></polygon>
                    <path d="M76.7242468,28.5125546 L77.6186061,27.7582374 L79.5632805,30.0657479 L77.4531019,31.8481008 C77.0457069,31.8067248 76.5810221,31.6444034 76.0558645,31.3579538 C75.5307069,31.0715042 75.0851187,30.7086681 74.715917,30.2726282 C74.2480494,29.7188256 73.9552342,29.1363782 73.8406544,28.5252857 C73.7260746,27.9173761 73.7992784,27.3253803 74.057083,26.7556639 C74.3148876,26.1827647 74.6968204,25.6798866 75.2060641,25.253395 C75.7598666,24.7855273 76.3486796,24.4895294 76.9725032,24.3590357 C77.5963267,24.228542 78.2137847,24.2890147 78.8185116,24.5404538 C79.2800137,24.7346029 79.7256019,25.0815252 80.1520935,25.5907689 C80.7090788,26.2496029 81.0050767,26.879792 81.0400872,27.4813361 C81.0750977,28.086063 80.8968624,28.6462311 80.4990158,29.1618403 L79.400959,28.2642983 C79.598291,27.9714832 79.6874086,27.6563887 79.6619464,27.3221975 C79.639667,26.9911891 79.499625,26.669729 79.2386376,26.361 C78.8439737,25.8931324 78.3824716,25.6448761 77.8509485,25.6194139 C77.3226082,25.5939517 76.7656229,25.8262941 76.1831754,26.3196239 C75.5498036,26.8511471 75.1965158,27.3890357 75.1201292,27.9332899 C75.0405599,28.4775441 75.193333,28.9772395 75.5752658,29.4323761 C75.7630494,29.6551702 75.9953918,29.8429538 76.2754758,29.9957269 C76.5523771,30.1453172 76.8229128,30.2503487 77.0839002,30.3044559 L77.7586481,29.7379223 L76.7242468,28.5125546" id="Fill-45" fill="#231F20"></path>
                    <path d="M81.8450105,35.922687 L83.6623739,33.8634328 L80.9506513,34.2549139 L81.8450105,35.922687 Z M80.6419223,39.4937584 L79.9226155,38.1506282 L81.0270378,36.8711534 L79.7157353,34.4267836 L78.0575105,34.6654916 L77.3541176,33.3541891 L84.7476996,32.4598298 L85.4479097,33.7679496 L80.6419223,39.4937584 Z" id="Fill-47" fill="#231F20"></path>
                    <polygon id="Fill-49" fill="#231F20" points="81.0633214 40.6828424 87.6930378 38.6426849 88.0908845 39.9476218 84.5007164 44.0215714 88.9279538 42.6593445 89.3098866 43.9038088 82.6801702 45.9407836 82.2664097 44.5976534 85.7706429 40.5969076 81.4452542 41.9273067"></polygon>
                </g>
            </g>
        </g>
    </g>
</svg>