<svg width="49" height="58" fill="none" xmlns="http://www.w3.org/2000/svg"><path d="M41.824 7.185C37.197 2.552 31.044 0 24.5 0 17.956 0 11.803 2.552 7.176 7.185 2.548 11.818 0 17.979 0 24.531c0 13.255 12.518 24.28 19.242 30.204.935.823 1.742 1.533 2.385 2.135A4.195 4.195 0 0024.5 58a4.196 4.196 0 002.873-1.13c.643-.601 1.45-1.312 2.384-2.135C36.483 48.812 49 37.786 49 24.53c0-6.552-2.548-12.713-7.176-17.346z" fill="#D9194F"/><path d="M30.067 32.088h-9.635l-.56-2.238h12.633l2.758-11.03H17.115L16.16 15H11v1.583h3.924l3.896 15.582a2.622 2.622 0 00-1.988 2.54 2.62 2.62 0 002.618 2.619 2.62 2.62 0 002.404-3.653h5.809a2.62 2.62 0 002.404 3.653 2.62 2.62 0 002.617-2.618 2.62 2.62 0 00-2.617-2.618zm-5.465-3.82h-1.757l-.393-3.141h2.15v3.14zm5.918-7.865h2.715l-.785 3.141h-2.323l.393-3.14zm-.59 4.724h2.125l-.786 3.14h-1.732l.392-3.14zm-3.746-4.724h2.74l-.392 3.141h-2.348v-3.14zm0 4.724h2.15l-.392 3.14h-1.758v-3.14zm-1.582-4.724v3.141h-2.348l-.392-3.14h2.74zm-7.091 0h2.756l.392 3.141h-2.363l-.785-3.14zm1.18 4.724h2.166l.393 3.14h-1.773l-.786-3.14zm.759 10.614a1.036 1.036 0 010-2.07 1.036 1.036 0 010 2.07zm10.617 0a1.036 1.036 0 010-2.07 1.036 1.036 0 010 2.07z" fill="#fff"/></svg>