<svg width="25" height="23" viewBox="0 0 25 23" fill="none" xmlns="http://www.w3.org/2000/svg">
<path d="M19.0666 17.088H9.43165L8.87219 14.8501H21.5052L24.2626 3.82065H6.11484L5.15969 0H0V1.58275H3.92391L7.81957 17.1652C6.67975 17.4481 5.83221 18.4796 5.83221 19.7057C5.83221 21.1492 7.00653 22.3235 8.44997 22.3235C9.89335 22.3235 11.0677 21.1492 11.0677 19.7057C11.0677 19.3382 10.9913 18.9883 10.854 18.6707H16.6626C16.5253 18.9883 16.4489 19.3382 16.4489 19.7057C16.4489 21.1492 17.6232 22.3235 19.0666 22.3235C20.51 22.3235 21.6844 21.1492 21.6844 19.7057C21.6843 18.2623 20.51 17.088 19.0666 17.088ZM13.6017 13.2674H11.8446L11.452 10.1267H13.6017V13.2674H13.6017ZM19.5196 5.40335H22.2354L21.4503 8.54399H19.1271L19.5196 5.40335ZM18.9292 10.1268H21.0546L20.2694 13.2674H18.5367L18.9292 10.1268ZM15.1844 5.40335H17.9246L17.532 8.54399H15.1844V5.40335H15.1844ZM15.1844 10.1267H17.3342L16.9416 13.2674H15.1844V10.1267H15.1844ZM13.6017 5.40335V8.54399H11.2541L10.8616 5.40335H13.6017ZM6.51052 5.40335H9.26651L9.65907 8.54399H7.29569L6.51052 5.40335ZM7.69138 10.1267H9.85696L10.2495 13.2674H8.47655L7.69138 10.1267ZM8.44997 20.7408C7.87928 20.7408 7.41497 20.2765 7.41497 19.7057C7.41497 19.135 7.87928 18.6707 8.44997 18.6707C9.02066 18.6707 9.48497 19.135 9.48497 19.7057C9.48497 20.2765 9.02066 20.7408 8.44997 20.7408ZM19.0666 20.7408C18.4959 20.7408 18.0316 20.2765 18.0316 19.7057C18.0316 19.135 18.4959 18.6707 19.0666 18.6707C19.6372 18.6707 20.1016 19.135 20.1016 19.7057C20.1016 20.2765 19.6372 20.7408 19.0666 20.7408Z" fill="#44474F"/>
</svg>
