<svg viewBox="0 0 24 24"><g fill="#44474F" fillRule="nonzero"><path d="M17.345 0H6.438A6.445 6.445 0 000 6.438v10.908a6.445 6.445 0 006.438 6.437h10.908a6.445 6.445 0 006.437-6.437V6.438A6.445 6.445 0 0017.345 0zm5.044 17.346a5.05 5.05 0 01-5.044 5.043H6.438a5.05 5.05 0 01-5.044-5.043V6.438a5.05 5.05 0 015.044-5.044h10.908a5.05 5.05 0 015.043 5.044v10.908z"/><path d="M11.892 5.389a6.51 6.51 0 00-6.503 6.503 6.51 6.51 0 006.503 6.503 6.51 6.51 0 006.503-6.503 6.51 6.51 0 00-6.503-6.503zm0 11.611a5.115 5.115 0 01-5.11-5.108 5.115 5.115 0 015.11-5.11A5.115 5.115 0 0117 11.893 5.114 5.114 0 0111.892 17zM18.55 3.08c-1.06 0-1.921.861-1.921 1.92 0 1.06.861 1.922 1.921 1.922s1.922-.862 1.922-1.921c0-1.06-.862-1.922-1.922-1.922zm0 2.448a.528.528 0 11.002-1.056.528.528 0 01-.002 1.056z"/></g></svg>