<?xml version="1.0" encoding="UTF-8"?>
<svg width="62px" height="61px" viewBox="0 0 62 61" version="1.1" xmlns="http://www.w3.org/2000/svg" xmlns:xlink="http://www.w3.org/1999/xlink">
    <title>Group 14</title>
    <g id="NEW" stroke="none" stroke-width="1" fill="none" fillRule="evenodd">
        <g id="mobile" transform="translate(-20.000000, -20.000000)" fill="#D9194F" fillRule="nonzero">
            <g id="Group-4" transform="translate(20.000000, 20.000000)">
                <path d="M37.2789012,3.073 C37.2789012,3.073 37.3839012,0.105 34.4789012,-2.94653191e-13 C34.4789012,-2.94653191e-13 33.9119012,2.947 37.2789012,3.073" id="Path"></path>
                <path d="M37.2789012,4.144 C37.2789012,4.144 36.3199012,6.944 33.5969012,6.027 C33.5969012,6.027 34.1219012,3.066 37.2789012,4.144" id="Path"></path>
                <path d="M41.7239012,4.536 C41.7239012,4.536 42.3189012,1.631 39.5049012,1.036 C39.5049012,1.036 38.4549012,3.836 41.7239012,4.536" id="Path"></path>
                <path d="M41.5489012,5.6 C41.5489012,5.6 40.1489012,8.211 37.6079012,6.846 C37.6079012,6.846 38.6089012,4.046 41.5489012,5.6" id="Path"></path>
                <path d="M45.8679012,6.72 C45.8679012,6.72 46.9319012,3.92 44.2509012,2.912 C44.2509012,2.912 42.7529012,5.516 45.8679012,6.72" id="Path"></path>
                <path d="M45.5179012,7.735 C45.5179012,7.735 43.6979012,10.08 41.4229012,8.316 C41.4229012,8.316 42.8789012,5.691 45.5179012,7.735" id="Path"></path>
                <path d="M49.5919012,9.555 C49.5919012,9.555 51.1039012,6.993 48.6259012,5.53 C48.6259012,5.53 46.7219012,7.854 49.5919012,9.555" id="Path"></path>
                <path d="M49.0809012,10.5 C49.0809012,10.5 46.8969012,12.488 44.9229012,10.388 C44.9229012,10.388 46.7989012,8.036 49.0599012,10.493" id="Path"></path>
                <path d="M52.7979012,12.964 C52.7979012,12.964 54.7089012,10.689 52.5109012,8.841 C52.5109012,8.841 50.2429012,10.815 52.7979012,12.964" id="Path"></path>
                <path d="M52.1329012,13.811 C52.1329012,13.811 49.6479012,15.435 48.0729012,13.027 C48.0729012,13.027 50.3129012,11.018 52.1329012,13.811" id="Path"></path>
                <path d="M55.4229012,16.856 C55.4229012,16.856 57.6839012,14.931 55.8219012,12.74 C55.8219012,12.74 53.2599012,14.315 55.4229012,16.856" id="Path"></path>
                <path d="M54.6039012,17.584 C54.6039012,17.584 51.8809012,18.774 50.7259012,16.142 C50.7259012,16.142 53.2669012,14.532 54.6039012,17.584" id="Path"></path>
                <path d="M57.3199012,21.126 C57.3199012,21.126 59.8679012,19.6 58.3909012,17.129 C58.3909012,17.129 55.5909012,18.263 57.3199012,21.126" id="Path"></path>
                <path d="M56.4169012,21.707 C56.4169012,21.707 53.5399012,22.407 52.8329012,19.649 C52.8329012,19.649 55.5979012,18.48 56.4169012,21.707" id="Path"></path>
                <path d="M58.5099012,25.655 C58.5099012,25.655 61.3099012,24.57 60.2249012,21.889 C60.2249012,21.889 57.2919012,22.547 58.5099012,25.655" id="Path"></path>
                <path d="M57.5229012,26.082 C57.5229012,26.082 54.5619012,26.32 54.3309012,23.457 C54.3309012,23.457 57.2499012,22.757 57.5229012,26.082" id="Path"></path>
                <path d="M58.9229012,30.31 C58.9229012,30.31 61.8279012,29.701 61.2329012,26.887 C61.2329012,26.887 58.2299012,27.048 58.9229012,30.31" id="Path"></path>
                <path d="M57.8939012,30.576 C57.8939012,30.576 54.9329012,30.324 55.1709012,27.461 C55.1709012,27.461 58.1739012,27.251 57.8939012,30.576" id="Path"></path>
                <path d="M58.5869012,34.979 C58.5869012,34.979 61.5549012,34.853 61.4359012,31.983 C61.4359012,31.983 58.4469012,31.647 58.5869012,34.979" id="Path"></path>
                <path d="M57.5229012,35.063 C57.5229012,35.063 54.6459012,34.363 55.3529012,31.563 C55.3529012,31.563 58.3489012,31.857 57.5229012,35.063" id="Path"></path>
                <path d="M57.4739012,39.529 C57.4739012,39.529 60.4209012,39.893 60.7779012,37.037 C60.7779012,37.037 57.8869012,36.218 57.4739012,39.529" id="Path"></path>
                <path d="M56.4029012,39.431 C56.4029012,39.431 53.6869012,38.234 54.8489012,35.602 C54.8489012,35.602 57.7469012,36.386 56.4029012,39.431" id="Path"></path>
                <path d="M55.6259012,43.827 C55.6259012,43.827 58.4679012,44.688 59.2939012,41.888 C59.2939012,41.888 56.5779012,40.607 55.6259012,43.799" id="Path"></path>
                <path d="M54.5829012,43.561 C54.5829012,43.561 52.0979012,41.93 53.6799012,39.522 C53.6799012,39.522 56.4169012,40.775 54.5829012,43.561" id="Path"></path>
                <path d="M53.0919012,47.761 C53.0919012,47.761 55.7589012,49.07 57.0189012,46.487 C57.0189012,46.487 54.5549012,44.772 53.0919012,47.761" id="Path"></path>
                <path d="M52.1049012,47.327 C52.1049012,47.327 49.9279012,45.311 51.8809012,43.197 C51.8809012,43.197 54.3729012,44.884 52.1049012,47.327" id="Path"></path>
                <path d="M49.9419012,51.226 C49.9419012,51.226 52.3569012,52.955 54.0299012,50.617 C54.0299012,50.617 51.8809012,48.517 49.9419012,51.226" id="Path"></path>
                <path d="M49.0459012,50.638 C49.0459012,50.638 47.2329012,48.286 49.5079012,46.529 C49.5079012,46.529 51.6849012,48.629 49.0459012,50.638" id="Path"></path>
                <path d="M46.2669012,54.124 C46.2669012,54.124 48.3669012,56.224 50.3969012,54.194 C50.3969012,54.194 48.6259012,51.772 46.2669012,54.124" id="Path"></path>
                <path d="M45.4759012,53.389 C45.4759012,53.389 44.0759012,50.771 46.6099012,49.413 C46.6099012,49.413 48.4159012,51.814 45.4759012,53.389" id="Path"></path>
                <path d="M42.1579012,56.371 C42.1579012,56.371 43.8799012,58.793 46.2249012,57.127 C46.2249012,57.127 44.8739012,54.439 42.1579012,56.371" id="Path"></path>
                <path d="M41.5069012,55.524 C41.5069012,55.524 40.5549012,52.724 43.2779012,51.786 C43.2779012,51.786 44.6779012,54.453 41.5069012,55.524" id="Path"></path>
                <path d="M37.7409012,57.918 C37.7409012,57.918 39.0359012,60.585 41.6259012,59.318 C41.6259012,59.318 40.7369012,56.448 37.7409012,57.918" id="Path"></path>
                <path d="M37.2229012,56.966 C37.2229012,56.966 36.7469012,54.033 39.5889012,53.578 C39.5889012,53.578 40.5129012,56.434 37.2229012,56.966" id="Path"></path>
                <path d="M33.1279012,58.688 C33.1279012,58.688 33.9679012,61.537 36.7259012,60.725 C36.7259012,60.725 36.3269012,57.743 33.1279012,58.688" id="Path"></path>
                <path d="M32.7849012,57.687 C32.7849012,57.687 32.7849012,54.719 35.6759012,54.733 C35.6759012,54.733 36.1169012,57.708 32.7849012,57.687" id="Path"></path>
                <path d="M24.1539012,3.073 C24.1539012,3.073 24.0489012,0.105 26.9539012,-2.94653191e-13 C26.9539012,-2.94653191e-13 27.5209012,2.947 24.1539012,3.073" id="Path"></path>
                <path d="M24.1539012,4.144 C24.1539012,4.144 25.1129012,6.944 27.8359012,6.027 C27.8359012,6.027 27.3109012,3.066 24.1539012,4.144" id="Path"></path>
                <path d="M19.7229012,4.536 C19.7229012,4.536 19.1279012,1.631 21.9489012,1.036 C21.9489012,1.036 22.9919012,3.836 19.7229012,4.536" id="Path"></path>
                <path d="M19.8909012,5.6 C19.8909012,5.6 21.2909012,8.211 23.8319012,6.846 C23.8319012,6.846 22.8239012,4.046 19.8909012,5.6" id="Path"></path>
                <path d="M15.5719012,6.72 C15.5719012,6.72 14.5009012,3.92 17.1819012,2.912 C17.1819012,2.912 18.6799012,5.516 15.5719012,6.72" id="Path"></path>
                <path d="M15.9149012,7.735 C15.9149012,7.735 17.7419012,10.08 20.0099012,8.316 C20.0099012,8.316 18.5539012,5.691 15.9149012,7.735" id="Path"></path>
                <path d="M11.8409012,9.555 C11.8409012,9.555 10.3289012,6.993 12.8069012,5.53 C12.8069012,5.53 14.7109012,7.854 11.8409012,9.555" id="Path"></path>
                <path d="M12.3589012,10.5 C12.3589012,10.5 14.5359012,12.509 16.4889012,10.395 C16.4889012,10.395 14.6129012,8.043 12.3589012,10.5" id="Path"></path>
                <path d="M8.63490119,12.964 C8.63490119,12.964 6.72390119,10.689 8.92890119,8.841 C8.92890119,8.841 11.1899012,10.815 8.63490119,12.964" id="Path"></path>
                <path d="M9.29990119,13.811 C9.29990119,13.811 11.7849012,15.435 13.3599012,13.027 C13.3599012,13.027 11.1269012,11.018 9.29990119,13.811" id="Path"></path>
                <path d="M6.03790119,16.856 C6.03790119,16.856 3.77690119,14.931 5.63890119,12.74 C5.63890119,12.74 8.20090119,14.315 6.03790119,16.856" id="Path"></path>
                <path d="M6.82890119,17.584 C6.82890119,17.584 9.55190119,18.774 10.7069012,16.142 C10.7069012,16.142 8.16590119,14.532 6.82890119,17.584" id="Path"></path>
                <path d="M4.11990119,21.126 C4.11990119,21.126 1.57190119,19.6 3.04890119,17.129 C3.04890119,17.129 5.84890119,18.263 4.11990119,21.126" id="Path"></path>
                <path d="M5.02290119,21.707 C5.02290119,21.707 7.90690119,22.407 8.60690119,19.649 C8.60690119,19.649 5.80690119,18.48 5.02290119,21.707" id="Path"></path>
                <path d="M2.92290119,25.655 C2.92290119,25.655 0.122901189,24.57 1.20790119,21.889 C1.20790119,21.889 4.13390119,22.547 2.92290119,25.655" id="Path"></path>
                <path d="M3.90990119,26.082 C3.90990119,26.082 6.87090119,26.32 7.10890119,23.457 C7.10890119,23.457 4.18290119,22.757 3.90990119,26.082" id="Path"></path>
                <path d="M2.50290119,30.31 C2.50290119,30.31 -0.409098811,29.701 0.185901189,26.887 C0.185901189,26.887 3.18890119,27.048 2.50290119,30.31" id="Path"></path>
                <path d="M3.53890119,30.576 C3.53890119,30.576 6.49990119,30.324 6.26190119,27.461 C6.26190119,27.461 3.25890119,27.251 3.53890119,30.576" id="Path"></path>
                <path d="M2.84590119,34.979 C2.84590119,34.979 -0.122098811,34.853 0.00390118887,31.983 C0.00390118887,31.983 2.98590119,31.647 2.84590119,34.979" id="Path"></path>
                <path d="M3.91690119,35.063 C3.91690119,35.063 6.79390119,34.363 6.08690119,31.563 C6.08690119,31.563 3.09790119,31.857 3.91690119,35.063" id="Path"></path>
                <path d="M3.95890119,39.529 C3.95890119,39.529 1.01190119,39.893 0.661901189,37.037 C0.661901189,37.037 3.55290119,36.218 3.95890119,39.529" id="Path"></path>
                <path d="M5.02290119,39.431 C5.02290119,39.431 7.75290119,38.234 6.59090119,35.588 C6.59090119,35.588 3.68590119,36.372 5.02990119,39.417" id="Path"></path>
                <path d="M5.81390119,43.827 C5.81390119,43.827 2.96490119,44.688 2.14590119,41.888 C2.14590119,41.888 4.86190119,40.607 5.81390119,43.799" id="Path"></path>
                <path d="M6.84990119,43.561 C6.84990119,43.561 9.33490119,41.93 7.75290119,39.522 C7.75290119,39.522 5.02290119,40.775 6.84990119,43.561" id="Path"></path>
                <path d="M8.34790119,47.761 C8.34790119,47.761 5.67390119,49.07 4.41390119,46.487 C4.41390119,46.487 6.87790119,44.772 8.34790119,47.761" id="Path"></path>
                <path d="M9.32790119,47.327 C9.32790119,47.327 11.5049012,45.311 9.55190119,43.197 C9.55190119,43.197 7.05990119,44.884 9.32790119,47.327" id="Path"></path>
                <path d="M11.4909012,51.226 C11.4909012,51.226 9.07590119,52.955 7.40290119,50.617 C7.40290119,50.617 9.55190119,48.517 11.4909012,51.226" id="Path"></path>
                <path d="M12.3869012,50.638 C12.3869012,50.638 14.2069012,48.286 11.9319012,46.529 C11.9319012,46.529 9.74790119,48.629 12.3869012,50.638" id="Path"></path>
                <path d="M15.1729012,54.124 C15.1729012,54.124 13.0729012,56.224 11.0359012,54.194 C11.0359012,54.194 12.8069012,51.772 15.1729012,54.124" id="Path"></path>
                <path d="M15.9569012,53.389 C15.9569012,53.389 17.3569012,50.771 14.8229012,49.413 C14.8229012,49.413 13.0169012,51.814 15.9569012,53.389" id="Path"></path>
                <path d="M19.2749012,56.371 C19.2749012,56.371 17.5529012,58.793 15.2079012,57.127 C15.2079012,57.127 16.5589012,54.439 19.2749012,56.371" id="Path"></path>
                <path d="M19.9259012,55.524 C19.9259012,55.524 20.8779012,52.724 18.1549012,51.786 C18.1549012,51.786 16.7549012,54.453 19.9259012,55.524" id="Path"></path>
                <path d="M23.6919012,57.918 C23.6919012,57.918 22.3969012,60.585 19.8069012,59.318 C19.8069012,59.318 20.6959012,56.448 23.6919012,57.918" id="Path"></path>
                <path d="M24.1959012,56.966 C24.1959012,56.966 24.6719012,54.033 21.8299012,53.578 C21.8299012,53.578 20.9059012,56.434 24.1959012,56.966" id="Path"></path>
                <path d="M28.3049012,58.688 C28.3049012,58.688 27.4649012,61.537 24.7069012,60.725 C24.7069012,60.725 25.1059012,57.743 28.3049012,58.688" id="Path"></path>
                <path d="M28.6479012,57.687 C28.6479012,57.687 28.6479012,54.719 25.7569012,54.733 C25.7569012,54.733 25.3159012,57.708 28.6479012,57.687" id="Path"></path>
                <path d="M30.7199012,10.1779988 C22.6247619,10.1751685 15.3251478,15.0493838 12.2253099,22.5275049 C9.12547211,30.0056259 10.8359712,38.6147219 16.5590981,44.3398513 C22.282225,50.0649807 30.8907221,51.7784914 38.3699271,48.6812698 C45.849132,45.5840483 50.7259012,38.2861398 50.7259012,30.191 C50.7259012,19.1408584 41.7700421,10.181865 30.7199012,10.1779988 M36.6559012,38.304 L30.7199012,37.562 L24.7769012,38.304 L25.1479012,36.078 L19.0229012,31.808 L21.2489012,30.884 L19.7649012,26.985 L23.6639012,27.888 L24.2239012,25.473 L27.1919012,28.273 L26.2609012,22.673 L28.4939012,23.604 L30.7199012,18.781 L32.9459012,23.604 L35.1719012,22.673 L34.2409012,28.273 L37.2089012,25.473 L37.7689012,27.888 L41.6609012,26.957 L40.1769012,30.856 L42.4029012,31.78 L36.2849012,36.05 L36.6559012,38.304 Z" id="Shape"></path>
            </g>
        </g>
    </g>
</svg>