<svg width="276" height="61"><g fill="#D9194F" fill-rule="nonzero"><path d="M37.279 3.073S37.384.105 34.479 0c0 0-.567 2.947 2.8 3.073M37.279 4.144s-.96 2.8-3.682 1.883c0 0 .525-2.961 3.682-1.883M41.724 4.536s.595-2.905-2.22-3.5c0 0-1.05 2.8 2.22 3.5M41.549 5.6s-1.4 2.611-3.941 1.246c0 0 1-2.8 3.94-1.246M45.868 6.72s1.064-2.8-1.617-3.808c0 0-1.498 2.604 1.617 3.808M45.518 7.735s-1.82 2.345-4.095.581c0 0 1.456-2.625 4.095-.581M49.592 9.555s1.512-2.562-.966-4.025c0 0-1.904 2.324.966 4.025M49.08 10.5s-2.183 1.988-4.157-.112c0 0 1.876-2.352 4.137.105M52.798 12.964s1.91-2.275-.287-4.123c0 0-2.268 1.974.287 4.123M52.133 13.811s-2.485 1.624-4.06-.784c0 0 2.24-2.009 4.06.784M55.423 16.856s2.26-1.925.399-4.116c0 0-2.562 1.575-.4 4.116M54.604 17.584s-2.723 1.19-3.878-1.442c0 0 2.54-1.61 3.878 1.442M57.32 21.126s2.548-1.526 1.07-3.997c0 0-2.8 1.134-1.07 3.997M56.417 21.707s-2.877.7-3.584-2.058c0 0 2.765-1.169 3.584 2.058M58.51 25.655s2.8-1.085 1.715-3.766c0 0-2.933.658-1.715 3.766M57.523 26.082s-2.961.238-3.192-2.625c0 0 2.919-.7 3.192 2.625M58.923 30.31s2.905-.609 2.31-3.423c0 0-3.003.161-2.31 3.423M57.894 30.576s-2.961-.252-2.723-3.115c0 0 3.003-.21 2.723 3.115M58.587 34.979s2.968-.126 2.849-2.996c0 0-2.99-.336-2.85 2.996M57.523 35.063s-2.877-.7-2.17-3.5c0 0 2.996.294 2.17 3.5M57.474 39.529s2.947.364 3.304-2.492c0 0-2.891-.819-3.304 2.492M56.403 39.431s-2.716-1.197-1.554-3.829c0 0 2.898.784 1.554 3.829M55.626 43.827s2.842.861 3.668-1.939c0 0-2.716-1.281-3.668 1.911M54.583 43.561s-2.485-1.631-.903-4.039c0 0 2.737 1.253.903 4.039M53.092 47.761s2.667 1.309 3.927-1.274c0 0-2.464-1.715-3.927 1.274M52.105 47.327s-2.177-2.016-.224-4.13c0 0 2.492 1.687.224 4.13M49.942 51.226s2.415 1.729 4.088-.609c0 0-2.15-2.1-4.088.609M49.046 50.638s-1.813-2.352.462-4.109c0 0 2.177 2.1-.462 4.109M46.267 54.124s2.1 2.1 4.13.07c0 0-1.771-2.422-4.13-.07M45.476 53.389s-1.4-2.618 1.134-3.976c0 0 1.806 2.401-1.134 3.976M42.158 56.371s1.722 2.422 4.067.756c0 0-1.351-2.688-4.067-.756M41.507 55.524s-.952-2.8 1.77-3.738c0 0 1.4 2.667-1.77 3.738M37.74 57.918s1.296 2.667 3.886 1.4c0 0-.89-2.87-3.885-1.4M37.223 56.966s-.476-2.933 2.366-3.388c0 0 .924 2.856-2.366 3.388M33.128 58.688s.84 2.849 3.598 2.037c0 0-.4-2.982-3.598-2.037M32.785 57.687s0-2.968 2.89-2.954c0 0 .442 2.975-2.89 2.954M24.154 3.073S24.049.105 26.954 0c0 0 .567 2.947-2.8 3.073M24.154 4.144s.959 2.8 3.682 1.883c0 0-.525-2.961-3.682-1.883M19.723 4.536s-.595-2.905 2.226-3.5c0 0 1.043 2.8-2.226 3.5M19.89 5.6s1.4 2.611 3.942 1.246c0 0-1.008-2.8-3.941-1.246M15.572 6.72s-1.071-2.8 1.61-3.808c0 0 1.498 2.604-1.61 3.808M15.915 7.735s1.827 2.345 4.095.581c0 0-1.456-2.625-4.095-.581M11.84 9.555s-1.511-2.562.967-4.025c0 0 1.904 2.324-.966 4.025M12.359 10.5s2.177 2.009 4.13-.105c0 0-1.876-2.352-4.13.105M8.635 12.964s-1.911-2.275.294-4.123c0 0 2.26 1.974-.294 4.123M9.3 13.811s2.485 1.624 4.06-.784c0 0-2.233-2.009-4.06.784M6.038 16.856s-2.261-1.925-.4-4.116c0 0 2.563 1.575.4 4.116M6.829 17.584s2.723 1.19 3.878-1.442c0 0-2.541-1.61-3.878 1.442M4.12 21.126S1.572 19.6 3.049 17.129c0 0 2.8 1.134 1.07 3.997M5.023 21.707s2.884.7 3.584-2.058c0 0-2.8-1.169-3.584 2.058M2.923 25.655s-2.8-1.085-1.715-3.766c0 0 2.926.658 1.715 3.766M3.91 26.082s2.96.238 3.199-2.625c0 0-2.926-.7-3.2 2.625M2.503 30.31S-.41 29.701.186 26.887c0 0 3.003.161 2.317 3.423M3.539 30.576s2.96-.252 2.723-3.115c0 0-3.003-.21-2.723 3.115M2.846 34.979s-2.968-.126-2.842-2.996c0 0 2.982-.336 2.842 2.996M3.917 35.063s2.877-.7 2.17-3.5c0 0-2.99.294-2.17 3.5M3.959 39.529s-2.947.364-3.297-2.492c0 0 2.89-.819 3.297 2.492M5.023 39.431s2.73-1.197 1.568-3.843c0 0-2.905.784-1.561 3.829M5.814 43.827s-2.85.861-3.668-1.939c0 0 2.716-1.281 3.668 1.911M6.85 43.561s2.485-1.631.903-4.039c0 0-2.73 1.253-.903 4.039M8.348 47.761s-2.674 1.309-3.934-1.274c0 0 2.464-1.715 3.934 1.274M9.328 47.327s2.177-2.016.224-4.13c0 0-2.492 1.687-.224 4.13M11.49 51.226s-2.414 1.729-4.087-.609c0 0 2.149-2.1 4.088.609M12.387 50.638s1.82-2.352-.455-4.109c0 0-2.184 2.1.455 4.109M15.173 54.124s-2.1 2.1-4.137.07c0 0 1.77-2.422 4.137-.07M15.957 53.389s1.4-2.618-1.134-3.976c0 0-1.806 2.401 1.134 3.976M19.275 56.371s-1.722 2.422-4.067.756c0 0 1.35-2.688 4.067-.756M19.926 55.524s.952-2.8-1.771-3.738c0 0-1.4 2.667 1.77 3.738M23.692 57.918s-1.295 2.667-3.885 1.4c0 0 .889-2.87 3.885-1.4M24.196 56.966s.476-2.933-2.366-3.388c0 0-.924 2.856 2.366 3.388M28.305 58.688s-.84 2.849-3.598 2.037c0 0 .399-2.982 3.598-2.037M28.648 57.687s0-2.968-2.891-2.954c0 0-.441 2.975 2.89 2.954M30.72 10.178a20.013 20.013 0 1020.006 20.013c0-11.05-8.956-20.01-20.006-20.013m5.936 28.126l-5.936-.742-5.943.742.37-2.226-6.124-4.27 2.226-.924-1.484-3.899 3.899.903.56-2.415 2.968 2.8-.931-5.6 2.233.931 2.226-4.823 2.226 4.823 2.226-.931-.931 5.6 2.968-2.8.56 2.415 3.892-.931-1.484 3.899 2.226.924-6.118 4.27.37 2.254z"/><g><path d="M268.53 18.112h-1.16V17.5h3.012v.612h-1.158v3.458h-.695v-3.458zm2.48-.612h.704l1.34 2.482 1.332-2.482h.712v4.07h-.687v-2.796l-1.133 1.985h-.455l-1.15-1.985v2.796h-.662V17.5zM76.329 30.58c0-7.446 5.187-12.567 12.674-12.567 7.486 0 12.673 5.08 12.673 12.566 0 7.487-5.253 12.542-12.673 12.542-7.421 0-12.674-5.121-12.674-12.542m18.481 0c0-3.565-2.374-6.453-5.79-6.453-3.417 0-5.792 2.846-5.792 6.453s2.408 6.461 5.791 6.461c3.384 0 5.791-2.854 5.791-6.46M103.397 34.36c0-5.187 3.26-8.761 7.446-8.761a5.79 5.79 0 014.36 1.994h.066v-1.655h6.154v16.827h-5.799V41.25h-.074a5.162 5.162 0 01-4.294 1.894c-4.6-.024-7.859-3.582-7.859-8.785m12.161 0a3.11 3.11 0 00-2.962-3.367c-1.745 0-2.986 1.373-2.986 3.367s1.24 3.4 2.986 3.4c1.746 0 2.962-1.34 2.962-3.4M125.072 37.487v-6.668h-1.82v-4.873h1.82v-5.294l6.146-.612v5.906h3.616v4.873h-3.64v5.36c0 .828.099 1.655 1.092 1.655.424-.016.843-.1 1.24-.248l1.514 4.26a8.852 8.852 0 01-4.963 1.242c-2.854 0-5.047-1.787-5.047-5.634M144.76 30.612c0-7.007 4.6-12.6 12.74-12.6a12.939 12.939 0 019.928 4.741l-4.773 4.087a7.18 7.18 0 00-5.154-2.54c-3.02 0-5.874 2.192-5.874 6.312 0 3.31 2.2 6.221 5.874 6.221a6.618 6.618 0 005.154-2.481l4.773 4.136a12.774 12.774 0 01-9.927 4.641c-7.214 0-12.74-4.368-12.74-12.508M168.752 34.36c0-5.187 3.309-8.761 7.445-8.761a5.857 5.857 0 014.368 1.994h.066v-1.655h6.147v16.827h-5.865V41.25h-.067a5.179 5.179 0 01-4.293 1.894c-4.6 0-7.834-3.573-7.834-8.76m12.16 0c0-1.994-1.34-3.367-2.953-3.367-1.754 0-2.986 1.373-2.986 3.367 0 1.993 1.232 3.4 2.986 3.4 1.613 0 2.954-1.34 2.954-3.4M189.707 25.946h6.146v1.787h.075a6.064 6.064 0 014.74-2.134c3.4 0 5.973 1.547 5.973 7.007v10.167h-6.147v-8.686c0-2.408-.686-3.061-2.2-3.061-1.514 0-2.482 1-2.482 3.309v8.446h-6.147l.042-16.835zM208.7 34.36c0-5.187 3.26-8.761 7.446-8.761a5.79 5.79 0 014.36 1.994h.074v-1.655h6.147v16.827h-5.857V41.25h-.066a5.179 5.179 0 01-4.294 1.894c-4.608 0-7.834-3.573-7.834-8.76m12.16 0c0-1.994-1.34-3.367-2.953-3.367-1.753 0-2.986 1.373-2.986 3.367 0 1.993 1.233 3.4 2.986 3.4 1.655 0 2.954-1.34 2.954-3.4M228.936 34.36c0-5.187 3.226-8.761 7.445-8.761a5.874 5.874 0 014.5 2.027h.075V17.533h6.147v25.273h-5.84v-1.588h-.067a5.36 5.36 0 01-4.434 1.894c-4.633 0-7.826-3.573-7.826-8.76m12.26 0a3.11 3.11 0 00-3.094-3.367c-1.72 0-2.986 1.373-2.986 3.367 0 1.993 1.265 3.4 2.986 3.4 1.72 0 3.094-1.34 3.094-3.4M249.336 34.36c0-5.187 3.26-8.761 7.446-8.761a5.79 5.79 0 014.36 1.994h.066v-1.655h6.146v16.827h-5.84V41.25h-.066a5.17 5.17 0 01-4.294 1.894c-4.6 0-7.826-3.573-7.826-8.76m12.153 0c0-1.994-1.332-3.367-2.954-3.367-1.745 0-2.986 1.373-2.986 3.367 0 1.993 1.24 3.4 2.986 3.4 1.655 0 2.954-1.34 2.954-3.4"/></g></g></svg>