<svg width="49" height="58" fill="none" xmlns="http://www.w3.org/2000/svg"><path d="M41.824 7.185C37.197 2.552 31.044 0 24.5 0 17.956 0 11.803 2.552 7.176 7.185 2.548 11.818 0 17.979 0 24.531c0 13.255 12.518 24.28 19.242 30.204.935.823 1.742 1.533 2.385 2.135A4.195 4.195 0 0024.5 58a4.196 4.196 0 002.873-1.13c.643-.601 1.45-1.312 2.384-2.135C36.483 48.812 49 37.786 49 24.53c0-6.552-2.548-12.713-7.176-17.346z" fill="#D9194F"/><path d="M14 31.468C14 33.416 15.542 35 17.438 35h12.375c1.895 0 3.437-1.584 3.437-3.532v-.706h-3.173c.363-.498.601-1.1.667-1.763l.061-.557.24-.087C32.778 27.732 36 26.57 36 22.918c0-2.962-2.072-3.438-4.2-3.498l.157-1.42H15.293l1.213 11c.066.662.304 1.264.667 1.762H14v.706zm19.939-10.211c.339.203.686.559.686 1.661 0 2.299-1.682 3.224-3.647 3.962l.667-6.05c1.132.026 1.849.16 2.294.427zm-11.689 1.98v3.287h-1.375v-3.287l.688-.706.687.706zm-4.376 5.617l-1.042-9.441h4.043v1.826L19.5 22.652v5.284h4.125v-5.284l-1.375-1.413v-1.826h8.168l-1.042 9.44c-.106 1.088-.988 1.909-2.052 1.909h-7.398c-1.064 0-1.946-.82-2.052-1.909zm13.883 3.32c-.284.823-1.048 1.413-1.945 1.413H17.438c-.896 0-1.66-.59-1.944-1.413h16.264z" fill="#fff"/></svg>
