<svg width="22" height="17" viewBox="0 0 22 17" fill="none" xmlns="http://www.w3.org/2000/svg">
<path d="M0 13.4681C0 15.4156 1.54206 17 3.4375 17H15.8125C17.7079 17 19.25 15.4156 19.25 13.4681V12.7618H16.0773C16.4397 12.2637 16.6783 11.6615 16.7437 10.9992L16.8052 10.4418C16.8814 10.4141 16.9614 10.3852 17.0456 10.3549C18.777 9.73151 22 8.57108 22 4.91838C22 1.95642 19.9282 1.47957 17.8006 1.42023L17.9573 0H1.29264L2.50626 10.9992C2.57162 11.6616 2.81027 12.2638 3.17268 12.7618H0V13.4681ZM19.9387 3.25695C20.278 3.45982 20.625 3.81583 20.625 4.91838C20.625 7.21687 18.9427 8.1417 16.9776 8.87963L17.6451 2.8303C18.777 2.85638 19.4937 2.99093 19.9387 3.25695ZM8.25 5.23714V8.52352H6.875V5.23714L7.5625 4.53077L8.25 5.23714ZM3.87393 10.8535L2.83232 1.4127H6.875V3.23924L5.5 4.65199V9.93627H9.625V4.65199L8.25 3.23924V1.4127H16.4177L15.376 10.8535C15.2702 11.9414 14.3879 12.7618 13.3238 12.7618H5.9262C4.86209 12.7618 3.9798 11.9414 3.87393 10.8535ZM17.7572 14.1745C17.4734 14.9968 16.7088 15.5873 15.8125 15.5873H3.43745C2.54114 15.5873 1.7765 14.9968 1.49275 14.1745H17.7572Z" fill="#44474F"/>
</svg>
