<svg viewBox="0 0 28 23"><path d="M10.304 22.358c-4.52 0-8.092-.79-9.8-2.167l-.034-.026-.03-.03c-.406-.407-.54-.94-.365-1.462l.016-.044c.211-.529.73-.885 1.292-.888 1.156-.02 2.167-.158 3.085-.426-1.464-.68-2.481-1.86-3.086-3.566a1.264 1.264 0 01.44-1.474 1.29 1.29 0 01.386-.197C1.394 11.138.793 10.07.457 8.94l-.01-.036-.008-.035c-.114-.572.141-1.16.61-1.413.196-.113.41-.171.624-.176a6.603 6.603 0 01-.499-1.522c-.276-1.424-.048-2.852.678-4.243l.168-.336a.94.94 0 011.5-.243l.306.306c2.417 2.534 4.582 3.737 8.326 4.56a6.633 6.633 0 011.79-3.825A6.283 6.283 0 0118.427.001h.011c1.24 0 2.778.708 3.708 1.207.798-.261 1.76-.666 2.757-1.093a1.26 1.26 0 011.409.248c.36.36.46.867.269 1.36-.073.202-.155.4-.247.594.137.062.262.147.367.253.32.319.453.819.34 1.273l-.013.043c-.382 1.232-1.116 2.235-2.087 2.865-.163 8.636-6.666 15.607-14.637 15.607zm-8.278-3.051c1.61.911 4.68 1.462 8.278 1.462 3.46 0 6.724-1.485 9.193-4.182 2.488-2.72 3.859-6.33 3.859-10.167v-.044c0-.347.191-.664.499-.827.624-.331 1.13-.895 1.459-1.615a.933.933 0 01-.895-.367.932.932 0 01-.007-1.108c.13-.18.248-.367.354-.56-.862.362-1.68.686-2.39.902a1.016 1.016 0 01-.781-.085c-1.264-.704-2.442-1.125-3.152-1.127-2.62.04-4.749 2.284-4.749 5.004a.934.934 0 01-1.118.919c-4.316-.85-6.874-2.126-9.534-4.799-.381.914-.485 1.834-.309 2.742.179.92.654 1.842 1.375 2.667.274.312.31.76.09 1.113a.93.93 0 01-1.035.41 4.29 4.29 0 01-.873-.336c.555 1.206 1.51 2.322 2.712 3.146a.938.938 0 01-.599 1.706 4.21 4.21 0 01-1.243-.27c.674 1.373 1.75 2.127 3.408 2.416a.937.937 0 01.278 1.75c-1.413.75-2.957 1.151-4.82 1.25z" fill="#44474F" fillRule="nonzero"/></svg>